<svg version="1.1" id="Layer_1" xmlns="http://www.w3.org/2000/svg" xmlns:xlink="http://www.w3.org/1999/xlink" x="0" y="0" viewBox="0 0 469.4 313" style="enable-background:new 0 0 469.4 313" xml:space="preserve"><style>.st3{fill:#65a91b}.st4{enable-background:new}.st5{fill:none;stroke:#65a91b;stroke-miterlimit:10}</style><g id="Layer_2_00000031176278897532611450000011617609665018282163_"><g id="Card"><path d="M20.5.5h428.4c11 0 20 9 20 20v272c0 11-9 20-20 20H20.5c-11 0-20-9-20-20v-272c0-11 9-20 20-20z" style="fill:#fff;stroke:#000;stroke-miterlimit:10"/><path d="M79.2 16.9h312c36.2 0 65.5 29.3 65.5 65.5v152.2c0 36.2-29.3 65.5-65.5 65.5h-312c-36.2 0-65.5-29.3-65.5-65.5V82.3c0-36.1 29.3-65.4 65.5-65.4z" style="fill:#d6ddb6"/><defs><path id="SVGID_1_" d="M226.2 87.4c-.6-1.8-1.2-3.7-1.8-5.6-2.1-.2-3.3-1.9-5.3-2.1-1.6 1-3.2 1.8-5 2.3-.8-1.2-3.6-2.9-3.9-4.3 1-1.6 1.8-3.2 2.3-5-.7-.9-1.2-1.8-1.6-2.8-.3-.7-.2-1.4-.6-1.9-1.7-.9-3.6-1.6-5.6-1.9v-5.9l.1-.1c1.9-.1 3.7-1.3 5.6-1.8.1-2 1.6-3.2 2.1-4.9.1-1.1-1.9-3.8-2.3-5.3 1.5-1.2 2.8-2.5 4-4 1.7.8 3.5 2.3 5.6 2.5 1.1-1.1 3.3-1 4.5-1.9.9-1 1.2-4.6 2.2-5.2.6-.4 4.9-.2 5.7 0 .4 1.8 1.1 3.6 1.9 5.3 2 .2 3.3 1.5 5 1.8 1.6-1 3.2-1.8 5-2.5 1.2 1.5 2.5 2.8 4 4-.7 1.7-2.2 3.7-2.4 5.6.7.8 1.6 4.4 2.1 4.7 1.2 1.1 3.6.9 4.9 1.9.4.6.1 2.3.1 3.1-.2.1-.3.1-.5.1-.4-.2-.8-.2-1.2-.1-1.1.5-.9 2.3-1.9 2.8-.8.3-1.6.5-2.5.7-.5-.3-2.4-1.8-3.1-1.6s-1.2 1.1-1.7 1.4c-.3.2-.9.4-1 .8-.2.6.8 2.5.9 3.4-.6.6-1 1.4-1.3 2.2-1.1.1-2.2.4-3.2.8-.1.2-.1.5-.1.8-.3 1-.4 2-.4 3 .8.4 2.8 1 3 2.1.1.2.1.2.1.5h-.1c-.3-.2-.6-.4-1-.4-.8.9-4.4 1.7-4.8 2.3-.6 1.2-1.1 2.4-1.4 3.8-.2.4-.2 1.4-.5 1.6l-5.9-.2zm1.9-33.9c-.8.5-2.4.5-3.2.9-2.1 1.1-3.7 2.8-4.7 4.9-2.4 5.8 1.2 10.5 4.9 12.4.9.5 2.9 1.3 4.4 1 4.2-.9 7.1-2.4 8.5-5.9 2.3-5.4-1.1-10.6-4.6-12.4-1.7-.7-3.5-1-5.3-.9zm26.3 10.6c0 1.1.3 2.2.8 3.2.9.7 1.9 1.2 3 1.6.9-.5 1.8-.8 2.8-.9.3.8 1.9 1.9 1.7 2.6-.4 1.1-1.4 1.6-1.5 3 .5.8.7 1.8.8 2.7 1 .3 1.7 1.1 2.8 1.3-.1 1-.2 2.1-.3 3.1-.3.2-.6.3-.9.3-.6.4-1.7.2-2.3.6-.7.9-1.2 1.9-1.5 3 .5.9.8 1.8.9 2.8-.6.4-1.9 1.8-2.5 1.7-1.1-.4-1.5-1.5-3-1.6-.7.4-1.5.6-2.3.7-.2.8-1.4 3-2.5 3-.6-.4-2-.2-2.7-.4-.2-1-.4-2.1-.6-3.1-1-.5-1.9-1.4-3.1-1.6-1 .6-2 .9-3 .9-.5-.9-1.5-1.5-1.8-2.6.8-.8 1.4-1.9 1.7-3-.4-.8-.7-1.8-.8-2.7-1-.4-2.9-.8-2.8-2.3.2-.7.4-1.5.4-2.2.9-.3 2.4-.3 3.1-.8.8-.9 1.3-2 1.6-3.1l-.9-2.7c.9-.5 1.6-1.6 2.7-1.8.8.9 1.9 1.5 3.1 1.6.6-.5 1.8-.3 2.5-.8.6-.9 1.2-1.8 1.6-2.8.8.1 1.9.3 3 .3zm-3.5 7.8c-.5.3-1.4.2-1.9.4-1.5.6-2.6 1.9-3.2 3.4-1.3 3.6 2.2 8.2 5.7 7.5 2.8-.6 6-2.7 5-6.5-.1-.8-.3-1.5-.6-2.2-1.2-1.6-2.8-2.2-5-2.6zm-4.3 3.1c.8.9 1.3 2.1 1.6 3.2-.6.4-1.1.8-1.6 1.4h-.3c-.3-1.8-.5-2.9.3-4.6z"/></defs><clipPath id="SVGID_00000158748264407854548130000009164639623608831890_"><use xlink:href="#SVGID_1_" style="overflow:visible"/></clipPath><g style="clip-path:url(#SVGID_00000158748264407854548130000009164639623608831890_)"><image style="overflow:visible;enable-background:new" width="468" height="405" xlink:href="685DD0F5.png" transform="matrix(.13 0 0 .13 204.58 38.93)"/></g><path class="st3" d="M324.5 62.5c.8.1 1.6.2 2.5.2 5.7.1 11.4 0 17 .2 8 .3 16 .7 24 1.1.2 0 .3.1.5.2-30.1 1.8-60.2 1.8-90.3.1v-.5h3.4c6.3-.2 12.6-.6 18.9-.7 7-.2 14-.2 21-.3.2 0 .4-.1.6-.2l2.4-.1zM147.2 61c.8.1 1.6.2 2.4.2 5.7.1 11.4 0 17 .2 8 .3 16 .7 24 1.1.2 0 .3.1.5.2-30.1 1.8-60.2 1.9-90.3.1v-.5h3.4c6.3-.2 12.6-.6 18.9-.7 7-.2 14-.2 21-.3.2 0 .4-.1.6-.2l2.5-.1z"/><g class="st4"><path d="m84.5 102.5-4.2 30.6h-2.2l-3.3-23c0-.4 0-1-.1-1.8 0 .4 0 1-.1 1.8l-3.3 23h-2.2L65 102.5h2.7l2.6 22.1c0 .5 0 1.2.1 2.2 0-.5 0-1.2.1-2.2l3.2-22.1H76l3.1 22.1c0 .5.1 1.2.1 2.2 0-.5 0-1.2.1-2.2l2.6-22.1h2.6zM98.8 133.1h-2.6v-16.7l-5.7.2v16.5h-2.6v-30.6h2.6v12.1c1-.1 2.1-.3 3.1-.4 1.3-.2 2.3-.3 3.1-.3 1.4 0 2.2.7 2.2 2.1v17.1zM113.6 130.9c0 1.5-.7 2.2-2.2 2.2h-6.2c-1.5 0-2.2-.7-2.2-2.2v-14.6c0-1.5.7-2.2 2.2-2.2h6.2c1.5 0 2.2.7 2.2 2.2v6.8l-.9.9h-7.2v6.9h5.6v-3.5h2.5v3.5zm-2.5-8.9v-5.7h-5.6v5.7h5.6zM127.8 120.3h-2.6v-3.9l-4.8.2v16.5h-2.6v-19h2.6v.5c.9-.1 1.7-.3 2.6-.4 1-.2 1.9-.2 2.6-.2 1.4 0 2.1.7 2.1 2.1v4.2zM141.7 130.9c0 1.5-.7 2.2-2.2 2.2h-6.2c-1.5 0-2.2-.7-2.2-2.2v-14.6c0-1.5.7-2.2 2.2-2.2h6.2c1.5 0 2.2.7 2.2 2.2v6.8l-.9.9h-7.2v6.9h5.6v-3.5h2.5v3.5zm-2.5-8.9v-5.7h-5.6v5.7h5.6zM164.6 133.1H162v-.5c-1 .1-2.1.3-3.1.4-1.3.2-2.3.2-3.1.2-1.4 0-2.1-.7-2.1-2.1v-6.9c0-1.5.7-2.2 2.2-2.2h6.1v-5.7h-5.6v3.2H154v-3.2c0-1.5.7-2.2 2.2-2.2h6.2c1.5 0 2.2.7 2.2 2.2v16.8zm-2.5-2.4V124h-5.8v6.8l5.8-.1zM178.8 120.3h-2.6v-3.9l-4.8.2v16.5h-2.6v-19h2.6v.5c.9-.1 1.7-.3 2.6-.4 1-.2 1.9-.2 2.6-.2 1.4 0 2.1.7 2.1 2.1v4.2zM192.7 130.9c0 1.5-.7 2.2-2.2 2.2h-6.2c-1.5 0-2.2-.7-2.2-2.2v-14.6c0-1.5.7-2.2 2.2-2.2h6.2c1.5 0 2.2.7 2.2 2.2v6.8l-.9.9h-7.2v6.9h5.6v-3.5h2.5v3.5zm-2.5-8.9v-5.7h-5.6v5.7h5.6zM215.6 114.1l-4.6 18.8-1.9 7.4h-2.6l1.9-7.4-4.7-18.8h2.7l3.2 15 3.3-15h2.7zM229.7 130.9c0 1.5-.7 2.2-2.2 2.2H221c-1.5 0-2.2-.7-2.2-2.2v-14.6c0-1.5.7-2.2 2.2-2.2h6.5c1.5 0 2.2.7 2.2 2.2v14.6zm-2.6-.1v-14.4h-5.7v14.4h5.7zM244.8 133.1h-2.6v-.5c-1 .1-2.1.3-3.1.4-1.2.2-2.3.2-3.1.2-1.4 0-2.1-.7-2.1-2.1v-17h2.6v16.7l5.8-.2v-16.5h2.6v19zM259 120.3h-2.6v-3.9l-4.8.2v16.5H249v-19h2.6v.5c.9-.1 1.7-.3 2.6-.4 1-.2 1.9-.2 2.6-.2 1.4 0 2.1.7 2.1 2.1v4.2z"/></g><g class="st4"><path class="st3" d="M287.8 113.1H284l-1.6 9.4h4v2.2H282l-1.5 8.4H278l1.5-8.4h-4.7l-1.4 8.4h-2.5l1.5-8.4H269v-2.2h3.8l1.6-9.4h-4v-2.2h4.4l1.5-8.4h2.5l-1.5 8.4h4.7l1.4-8.4h2.5l-1.5 8.4h3.4v2.2zm-6.2 0h-4.7l-1.6 9.4h4.7l1.6-9.4zM303.6 130.9c0 .6-.2 1.2-.6 1.6s-.9.6-1.6.6h-8c-.6 0-1.2-.2-1.6-.6s-.6-.9-.6-1.6v-10c0-.9.3-1.5 1-2l3-1.9-2.9-1.8c-.7-.4-1-1.1-1-2v-8.6c0-.6.2-1.2.6-1.6s.9-.6 1.6-.6h7.9c.6 0 1.2.2 1.6.6s.6.9.6 1.6v8.6c0 .9-.3 1.6-1 2l-2.9 1.8 2.9 1.9c.7.5 1.1 1.1 1.1 2v10zm-2.8-.2v-10.1l-3.5-2.3-3.5 2.3v10.1h7zm0-17v-8.8H294v8.8l3.4 2.3 3.4-2.3z"/></g><g class="st4"><path class="st5" d="M287.8 113.1H284l-1.6 9.4h4v2.2H282l-1.5 8.4H278l1.5-8.4h-4.7l-1.4 8.4h-2.5l1.5-8.4H269v-2.2h3.8l1.6-9.4h-4v-2.2h4.4l1.5-8.4h2.5l-1.5 8.4h4.7l1.4-8.4h2.5l-1.5 8.4h3.4v2.2zm-6.2 0h-4.7l-1.6 9.4h4.7l1.6-9.4zM303.6 130.9c0 .6-.2 1.2-.6 1.6s-.9.6-1.6.6h-8c-.6 0-1.2-.2-1.6-.6s-.6-.9-.6-1.6v-10c0-.9.3-1.5 1-2l3-1.9-2.9-1.8c-.7-.4-1-1.1-1-2v-8.6c0-.6.2-1.2.6-1.6s.9-.6 1.6-.6h7.9c.6 0 1.2.2 1.6.6s.6.9.6 1.6v8.6c0 .9-.3 1.6-1 2l-2.9 1.8 2.9 1.9c.7.5 1.1 1.1 1.1 2v10zm-2.8-.2v-10.1l-3.5-2.3-3.5 2.3v10.1h7zm0-17v-8.8H294v8.8l3.4 2.3 3.4-2.3z"/></g><g class="st4"><path d="M326.8 133.1h-2.6v-.5c-1 .1-2.1.3-3.1.4-1.3.2-2.3.2-3.1.2-1.4 0-2.1-.7-2.1-2.1v-6.9c0-1.5.7-2.2 2.2-2.2h6.1v-5.7h-5.6v3.2h-2.5v-3.2c0-1.5.7-2.2 2.2-2.2h6.2c1.5 0 2.2.7 2.2 2.2v16.8zm-2.6-2.4V124h-5.8v6.8l5.8-.1zM341.9 133.1h-2.6v-16.7l-5.7.2v16.5H331v-19h2.6v.5c1-.1 2-.3 3.1-.4 1.2-.2 2.3-.2 3.1-.2 1.4 0 2.2.7 2.2 2.1v17zM356.9 133.1h-2.6v-.5c-2.8.4-4.3.6-4.6.6-1.1 0-2-.4-2.7-1.1s-1-1.7-1-2.8v-11.1c0-1.2.4-2.1 1.2-2.9s1.7-1.2 2.9-1.2h4.3v-11.6h2.6v30.6zm-2.5-2.4v-14.4h-3.6c-1.4 0-2.1.7-2.1 2.2v10.2c0 1.5.7 2.2 2.1 2.2.3 0 1.5 0 3.6-.2z"/></g><g class="st4"><path class="st3" d="M386.8 113.1H383l-1.6 9.4h4v2.2H381l-1.5 8.4H377l1.5-8.4h-4.7l-1.4 8.4h-2.5l1.5-8.4H368v-2.2h3.8l1.6-9.4h-4v-2.2h4.4l1.5-8.4h2.5l-1.5 8.4h4.7l1.4-8.4h2.5l-1.5 8.4h3.4v2.2zm-6.3 0h-4.7l-1.6 9.4h4.7l1.6-9.4zM402.2 130.9c0 .6-.2 1.2-.6 1.6s-.9.6-1.6.6h-7.6c-.6 0-1.2-.2-1.6-.6s-.6-.9-.6-1.6v-6.8h2.7v6.5h6.6v-11.3h-7.2c-.6 0-1.2-.2-1.6-.6s-.6-.9-.6-1.6v-12.5c0-.6.2-1.2.6-1.6s.9-.6 1.6-.6h7.8c.6 0 1.2.2 1.6.6s.6.9.6 1.6v26.3zm-2.7-13.9v-12.1h-6.7V117h6.7z"/></g><g class="st4"><path class="st5" d="M386.8 113.1H383l-1.6 9.4h4v2.2H381l-1.5 8.4H377l1.5-8.4h-4.7l-1.4 8.4h-2.5l1.5-8.4H368v-2.2h3.8l1.6-9.4h-4v-2.2h4.4l1.5-8.4h2.5l-1.5 8.4h4.7l1.4-8.4h2.5l-1.5 8.4h3.4v2.2zm-6.3 0h-4.7l-1.6 9.4h4.7l1.6-9.4zM402.2 130.9c0 .6-.2 1.2-.6 1.6s-.9.6-1.6.6h-7.6c-.6 0-1.2-.2-1.6-.6s-.6-.9-.6-1.6v-6.8h2.7v6.5h6.6v-11.3h-7.2c-.6 0-1.2-.2-1.6-.6s-.6-.9-.6-1.6v-12.5c0-.6.2-1.2.6-1.6s.9-.6 1.6-.6h7.8c.6 0 1.2.2 1.6.6s.6.9.6 1.6v26.3zm-2.7-13.9v-12.1h-6.7V117h6.7z"/></g><g class="st4"><path d="M208.7 181.1H205c-1.5 0-2.2-.7-2.2-2.2v-14.5h-2.3v-2.3h2.3v-5.9h2.6v5.9h3.3v2.3h-3.3v14.4h3.3v2.3zM214.8 157.9h-2.6v-3.3h2.6v3.3zm0 23.2h-2.6v-19h2.6v19zM221.9 181.1h-2.6v-30.6h2.6v30.6zM236.9 178.9c0 1.5-.7 2.2-2.2 2.2h-6.2c-1.5 0-2.2-.7-2.2-2.2v-14.6c0-1.5.7-2.2 2.2-2.2h6.2c1.5 0 2.2.7 2.2 2.2v6.8l-.9.9h-7.2v6.9h5.6v-3.5h2.5v3.5zm-2.5-8.9v-5.7h-5.6v5.7h5.6zM251.5 178.9c0 1.5-.7 2.2-2.2 2.2h-6c-1.5 0-2.2-.7-2.2-2.2v-4.3h2.6v4.3h5.3v-3.8l-6.8-5.6c-.7-.5-1-1.2-1-2v-3.2c0-1.5.7-2.2 2.2-2.2h5.9c1.5 0 2.2.7 2.2 2.2v3.8H249v-3.8h-5.3v3.3l6.9 5.6c.6.5 1 1.2 1 2.1v3.6zM266.9 159.6c0 .8-.2 1.5-.6 2.1l-4 6.1v6.5h-2.7v-5.8c0-.9.2-1.6.6-2.1l4-6v-7.3H258v6.9h-2.7v-7.1c0-.6.2-1.2.6-1.6s.9-.6 1.6-.6h7.3c.7 0 1.2.2 1.6.6s.6.9.6 1.6v6.7zm-4.5 21.5h-3v-3.4h3v3.4z"/></g><g class="st4"><path class="st3" d="m82.7 229.4-2.6 8.7c-.3.9-.8 2.3-1.3 4.3v8.3h-1.9v-8.3c-.1-.7-.3-1.4-.6-2.2-.4-1.3-.7-2-.7-2.1l-2.6-8.7v-.1h1.9l2.9 10.7 2.9-10.7h1.9l.1.1zM92.4 249.1c0 1-.5 1.5-1.5 1.5h-4.6c-1 0-1.5-.5-1.5-1.5v-10.2c0-1 .5-1.5 1.5-1.5h4.6c1 0 1.5.5 1.5 1.5v10.2zm-1.8 0V239h-4v10.1h4zM103 250.7h-1.8v-.4c-.7.1-1.5.2-2.2.3-.9.1-1.6.2-2.2.2-1 0-1.5-.5-1.5-1.5v-11.9h1.8v11.7l4-.1v-11.6h1.8v13.3zM124.8 250.7H123V239l-4 .1v11.6h-1.8V239l-4 .1v11.6h-1.8v-13.3h1.8v.4l2.1-.3c.9-.1 1.6-.2 2.1-.2.6 0 1 .2 1.2.5.8-.1 1.5-.2 2.3-.3 1-.1 1.7-.2 2.3-.2 1 0 1.5.5 1.5 1.5v11.9zM135.4 250.7h-1.8v-.4c-.7.1-1.5.2-2.2.3-.9.1-1.6.2-2.2.2-1 0-1.5-.5-1.5-1.5v-11.9h1.8v11.7l4-.1v-11.6h1.8v13.3zM145.5 249.1c0 1-.5 1.5-1.5 1.5h-4.2c-1 0-1.5-.5-1.5-1.5v-3h1.8v3h3.7v-2.7l-4.8-3.9c-.5-.4-.7-.8-.7-1.4v-2.2c0-1 .5-1.5 1.5-1.5h4.1c1 0 1.5.5 1.5 1.5v2.7h-1.8V239h-3.7v2.3l4.8 3.9c.4.4.7.8.7 1.4v2.5zM153.2 250.7h-2.6c-1 0-1.5-.5-1.5-1.5V239h-1.6v-1.6h1.6v-4.1h1.8v4.1h2.3v1.6h-2.3v10.1h2.3v1.6zM168.4 249.1c0 1-.5 1.5-1.5 1.5h-4.3c-1 0-1.5-.5-1.5-1.5v-10.2c0-1 .5-1.5 1.5-1.5h4.3c1 0 1.5.5 1.5 1.5v2.7h-1.8V239h-3.8v10.1h3.8v-3h1.8v3zM179 250.7h-1.8V239l-4 .1v11.6h-1.8v-21.4h1.8v8.5c.7-.1 1.4-.2 2.2-.3.9-.1 1.6-.2 2.1-.2 1 0 1.5.5 1.5 1.5v11.9zM189.6 249.1c0 1-.5 1.5-1.5 1.5h-4.6c-1 0-1.5-.5-1.5-1.5v-10.2c0-1 .5-1.5 1.5-1.5h4.6c1 0 1.5.5 1.5 1.5v10.2zm-1.8 0V239h-4v10.1h4zM200.2 249.1c0 1-.5 1.5-1.5 1.5h-4.6c-1 0-1.5-.5-1.5-1.5v-10.2c0-1 .5-1.5 1.5-1.5h4.6c1 0 1.5.5 1.5 1.5v10.2zm-1.8 0V239h-4v10.1h4zM210.3 249.1c0 1-.5 1.5-1.5 1.5h-4.2c-1 0-1.5-.5-1.5-1.5v-3h1.8v3h3.7v-2.7l-4.8-3.9c-.5-.4-.7-.8-.7-1.4v-2.2c0-1 .5-1.5 1.5-1.5h4.1c1 0 1.5.5 1.5 1.5v2.7h-1.8V239h-3.7v2.3l4.8 3.9c.4.4.7.8.7 1.4v2.5zM220.6 249.1c0 1-.5 1.5-1.5 1.5h-4.4c-1 0-1.5-.5-1.5-1.5v-10.2c0-1 .5-1.5 1.5-1.5h4.4c1 0 1.5.5 1.5 1.5v4.8l-.6.6h-5v4.8h3.9v-2.4h1.8v2.4zm-1.7-6.2v-4H215v4h3.9zM236.8 249.1c0 1-.5 1.5-1.5 1.5h-4.6c-1 0-1.5-.5-1.5-1.5v-10.2c0-1 .5-1.5 1.5-1.5h4.6c1 0 1.5.5 1.5 1.5v10.2zm-1.8 0V239h-4v10.1h4zM247.4 250.7h-1.8V239l-4 .1v11.6h-1.8v-13.3h1.8v.4l2.1-.3c.9-.1 1.6-.2 2.2-.2 1 0 1.5.5 1.5 1.5v11.9zM257.8 249.1c0 1-.5 1.5-1.5 1.5h-4.4c-1 0-1.5-.5-1.5-1.5v-10.2c0-1 .5-1.5 1.5-1.5h4.4c1 0 1.5.5 1.5 1.5v4.8l-.6.6h-5.1v4.8h3.9v-2.4h1.8v2.4zm-1.8-6.2v-4h-3.9v4h3.9zM273.9 250.7h-1.8V239l-4 .1v11.6h-1.8v-13.3h1.8v.4l2.1-.3c.9-.1 1.6-.2 2.2-.2 1 0 1.5.5 1.5 1.5v11.9zM284.5 250.7h-1.8v-.4c-.7.1-1.5.2-2.2.3-.9.1-1.6.2-2.2.2-1 0-1.5-.5-1.5-1.5v-11.9h1.8v11.7l4-.1v-11.6h1.8v13.3zM300.8 250.7H299V239l-4 .1v11.6h-1.8V239l-4 .1v11.6h-1.8v-13.3h1.8v.4l2.1-.3c.9-.1 1.6-.2 2.1-.2.6 0 1 .2 1.2.5.8-.1 1.5-.2 2.3-.3 1-.1 1.7-.2 2.3-.2 1 0 1.5.5 1.5 1.5v11.9zM311.4 247.8c0 .8-.3 1.5-.8 2s-1.2.8-2 .8h-4.8v-21.4h1.8v8.5c.7-.1 1.4-.2 2.2-.3.9-.1 1.6-.2 2.1-.2 1 0 1.5.5 1.5 1.5v9.1zm-1.8-.2V239l-4 .1v10h2.5c1 0 1.5-.5 1.5-1.5zM321.8 249.1c0 1-.5 1.5-1.5 1.5h-4.4c-1 0-1.5-.5-1.5-1.5v-10.2c0-1 .5-1.5 1.5-1.5h4.4c1 0 1.5.5 1.5 1.5v4.8l-.6.6h-5.1v4.8h3.9v-2.4h1.8v2.4zm-1.8-6.2v-4h-3.9v4h3.9zM331.8 241.8H330V239l-3.3.1v11.6h-1.8v-13.3h1.8v.4l1.8-.3c.7-.1 1.3-.2 1.8-.2 1 0 1.5.5 1.5 1.5v3zM347.2 247.8c0 .8-.3 1.5-.8 2s-1.2.8-2 .8h-4.8v-21.4h1.8v8.5c.7-.1 1.4-.2 2.2-.3.9-.1 1.6-.2 2.1-.2 1 0 1.5.5 1.5 1.5v9.1zm-1.8-.2V239l-4 .1v10h2.5c1 0 1.5-.5 1.5-1.5zM357.6 249.1c0 1-.5 1.5-1.5 1.5h-4.4c-1 0-1.5-.5-1.5-1.5v-10.2c0-1 .5-1.5 1.5-1.5h4.4c1 0 1.5.5 1.5 1.5v4.8l-.6.6h-5.1v4.8h3.9v-2.4h1.8v2.4zm-1.8-6.2v-4h-3.9v4h3.9zM365.6 230.9H363v6.5h2.3v1.6H363v11.7h-1.8V239h-1.5v-1.6h1.5v-6.5c0-1 .5-1.5 1.5-1.5h2.8v1.5zM374.9 249.1c0 1-.5 1.5-1.5 1.5h-4.6c-1 0-1.5-.5-1.5-1.5v-10.2c0-1 .5-1.5 1.5-1.5h4.6c1 0 1.5.5 1.5 1.5v10.2zm-1.8 0V239h-4v10.1h4zM384.8 241.8H383V239l-3.3.1v11.6h-1.8v-13.3h1.8v.4l1.8-.3c.7-.1 1.3-.2 1.8-.2 1 0 1.5.5 1.5 1.5v3zM394.6 249.1c0 1-.5 1.5-1.5 1.5h-4.4c-1 0-1.5-.5-1.5-1.5v-10.2c0-1 .5-1.5 1.5-1.5h4.4c1 0 1.5.5 1.5 1.5v4.8l-.6.6h-5.1v4.8h3.9v-2.4h1.8v2.4zm-1.8-6.2v-4h-3.9v4h3.9z"/></g><g class="st4"><path class="st3" d="M155.9 284.3h-1.8v-.4c-.7.1-1.4.2-2.2.3-.9.1-1.6.2-2.1.2-1 0-1.5-.5-1.5-1.5V278c0-1 .5-1.5 1.5-1.5h4.3v-4h-3.9v2.3h-1.8v-2.2c0-1 .5-1.5 1.5-1.5h4.4c1 0 1.5.5 1.5 1.5v11.7zm-1.8-1.7v-4.7H150v4.8l4.1-.1zM166 282.7c0 1-.5 1.5-1.5 1.5h-4.2c-1 0-1.5-.5-1.5-1.5v-3h1.8v3h3.7V280l-4.8-3.9c-.5-.4-.7-.8-.7-1.4v-2.2c0-1 .5-1.5 1.5-1.5h4.1c1 0 1.5.5 1.5 1.5v2.7h-1.8v-2.6h-3.7v2.3l4.8 3.9c.4.4.7.8.7 1.4v2.5zM176.4 284.3h-2l-3.7-6.8v6.8h-1.8v-21.4h1.8v13.6l3.4-5.5h2v.1l-3.9 5.9 4.2 7.3zM180.2 268.1h-1.8v-2.3h1.8v2.3zm0 16.2h-1.8V271h1.8v13.3zM190.9 284.3h-1.8v-11.7l-4 .1v11.6h-1.8V271h1.8v.4l2.1-.3c.9-.1 1.6-.2 2.2-.2 1 0 1.5.5 1.5 1.5v11.9zM201.4 287.8c0 1-.5 1.5-1.5 1.5h-4.3c-1 0-1.6-.7-1.6-2v-1.4h1.8v1.8h3.8v-3.5h-3c-.8 0-1.5-.3-2-.8s-.8-1.2-.8-2v-7.8c0-.8.2-1.4.7-2 .5-.5 1.1-.8 1.9-.8.2 0 1.3.2 3.2.5v-.3h1.8v16.8zm-1.8-5.1v-10c-1.4-.1-2.3-.1-2.5-.1-1 0-1.5.5-1.5 1.5v7.1c0 1 .5 1.5 1.5 1.5h2.5zM214.7 284.3h-2.6c-1 0-1.5-.5-1.5-1.5v-10.2H209V271h1.6v-4.1h1.8v4.1h2.3v1.6h-2.3v10.1h2.3v1.6zM224.7 284.3h-1.8v-11.7l-4 .1v11.6H217v-21.4h1.8v8.5c.7-.1 1.4-.2 2.2-.3.9-.1 1.6-.2 2.1-.2 1 0 1.5.5 1.5 1.5v11.9zM235 282.7c0 1-.5 1.5-1.5 1.5h-4.4c-1 0-1.5-.5-1.5-1.5v-10.2c0-1 .5-1.5 1.5-1.5h4.4c1 0 1.5.5 1.5 1.5v4.8l-.6.6h-5.1v4.8h3.9v-2.4h1.8v2.4zm-1.7-6.2v-4h-3.9v4h3.9zM251.1 289.3h-1.8v-5h-3c-.8 0-1.5-.3-2-.8s-.8-1.2-.8-2v-7.8c0-.8.2-1.4.7-2s1.1-.8 1.9-.8c.2 0 1.3.2 3.2.5v-.4h1.8v18.3zm-1.8-6.6v-10c-1.4-.1-2.3-.1-2.5-.1-1 0-1.5.5-1.5 1.5v7.1c0 1 .5 1.5 1.5 1.5h2.5zM261.7 284.3h-1.8v-.4c-.7.1-1.5.2-2.2.3-.9.1-1.6.2-2.2.2-1 0-1.5-.5-1.5-1.5V271h1.8v11.7l4-.1V271h1.8v13.3zM272.1 282.7c0 1-.5 1.5-1.5 1.5h-4.4c-1 0-1.5-.5-1.5-1.5v-10.2c0-1 .5-1.5 1.5-1.5h4.4c1 0 1.5.5 1.5 1.5v4.8l-.6.6h-5.1v4.8h3.9v-2.4h1.8v2.4zm-1.8-6.2v-4h-3.9v4h3.9zM282.3 282.7c0 1-.5 1.5-1.5 1.5h-4.2c-1 0-1.5-.5-1.5-1.5v-3h1.8v3h3.7V280l-4.8-3.9c-.5-.4-.7-.8-.7-1.4v-2.2c0-1 .5-1.5 1.5-1.5h4.1c1 0 1.5.5 1.5 1.5v2.7h-1.8v-2.6h-3.7v2.3l4.8 3.9c.4.4.7.8.7 1.4v2.5zM290 284.3h-2.6c-1 0-1.5-.5-1.5-1.5v-10.2h-1.6V271h1.6v-4.1h1.8v4.1h2.3v1.6h-2.3v10.1h2.3v1.6zM294.2 268.1h-1.8v-2.3h1.8v2.3zm0 16.2h-1.8V271h1.8v13.3zM304.9 282.7c0 1-.5 1.5-1.5 1.5h-4.6c-1 0-1.5-.5-1.5-1.5v-10.2c0-1 .5-1.5 1.5-1.5h4.6c1 0 1.5.5 1.5 1.5v10.2zm-1.8 0v-10.1h-4v10.1h4zM315.5 284.3h-1.8v-11.7l-4 .1v11.6h-1.8V271h1.8v.4l2.1-.3c.9-.1 1.6-.2 2.2-.2 1 0 1.5.5 1.5 1.5v11.9zM320.3 284.3h-2.1v-2.4h2.1v2.4z"/></g></g></g></svg>