<?xml version="1.0" encoding="utf-8"?>
<!-- Generator: Adobe Illustrator 26.0.0, SVG Export Plug-In . SVG Version: 6.00 Build 0)  -->
<svg version="1.1" id="Layer_1" xmlns="http://www.w3.org/2000/svg" xmlns:xlink="http://www.w3.org/1999/xlink" x="0px" y="0px"
	 viewBox="0 0 469.4 313" style="enable-background:new 0 0 469.4 313;" xml:space="preserve">
<style type="text/css">
	.st0{fill:#FFFFFF;stroke:#000000;stroke-miterlimit:10;}
	.st1{fill:#D6DDB6;}
	.st2{clip-path:url(#SVGID_00000142142013555577615240000003226503361000748963_);}
	.st3{fill:#65A91B;}
	.st4{enable-background:new    ;}
	.st5{fill:none;stroke:#65A91B;stroke-miterlimit:10;}
</style>
<g id="Layer_2_00000031176278897532611450000011617609665018282163_">
	<g id="Card">
		<path class="st0" d="M20.5,0.5h428.4c11,0,20,9,20,20v272c0,11-9,20-20,20H20.5c-11,0-20-9-20-20v-272C0.5,9.5,9.5,0.5,20.5,0.5z"
			/>
		<path class="st1" d="M79.2,16.9h312c36.2,0,65.5,29.3,65.5,65.5v152.2c0,36.2-29.3,65.5-65.5,65.5h-312
			c-36.2,0-65.5-29.3-65.5-65.5V82.3C13.7,46.2,43,16.9,79.2,16.9z"/>
		<g>
			<defs>
				<path id="SVGID_1_" d="M226.2,87.4c-0.6-1.8-1.2-3.7-1.8-5.6c-2.1-0.2-3.3-1.9-5.3-2.1c-1.6,1-3.2,1.8-5,2.3
					c-0.8-1.2-3.6-2.9-3.9-4.3c1-1.6,1.8-3.2,2.3-5c-0.7-0.9-1.2-1.8-1.6-2.8c-0.3-0.7-0.2-1.4-0.6-1.9c-1.7-0.9-3.6-1.6-5.6-1.9
					v-5.9c0.1-0.1,0,0,0.1-0.1c1.9-0.1,3.7-1.3,5.6-1.8c0.1-2,1.6-3.2,2.1-4.9c0.1-1.1-1.9-3.8-2.3-5.3c1.5-1.2,2.8-2.5,4-4
					c1.7,0.8,3.5,2.3,5.6,2.5c1.1-1.1,3.3-1,4.5-1.9c0.9-1,1.2-4.6,2.2-5.2c0.6-0.4,4.9-0.2,5.7,0c0.4,1.8,1.1,3.6,1.9,5.3
					c2,0.2,3.3,1.5,5,1.8c1.6-1,3.2-1.8,5-2.5c1.2,1.5,2.5,2.8,4,4c-0.7,1.7-2.2,3.7-2.4,5.6c0.7,0.8,1.6,4.4,2.1,4.7
					c1.2,1.1,3.6,0.9,4.9,1.9c0.4,0.6,0.1,2.3,0.1,3.1c-0.2,0.1-0.3,0.1-0.5,0.1c-0.4-0.2-0.8-0.2-1.2-0.1c-1.1,0.5-0.9,2.3-1.9,2.8
					c-0.8,0.3-1.6,0.5-2.5,0.7c-0.5-0.3-2.4-1.8-3.1-1.6s-1.2,1.1-1.7,1.4c-0.3,0.2-0.9,0.4-1,0.8c-0.2,0.6,0.8,2.5,0.9,3.4
					c-0.6,0.6-1,1.4-1.3,2.2c-1.1,0.1-2.2,0.4-3.2,0.8c-0.1,0.2-0.1,0.5-0.1,0.8c-0.3,1-0.4,2-0.4,3c0.8,0.4,2.8,1,3,2.1
					c0.1,0.2,0.1,0.2,0.1,0.5h-0.1c-0.3-0.2-0.6-0.4-1-0.4c-0.8,0.9-4.4,1.7-4.8,2.3c-0.6,1.2-1.1,2.4-1.4,3.8
					c-0.2,0.4-0.2,1.4-0.5,1.6L226.2,87.4z M228.1,53.5c-0.8,0.5-2.4,0.5-3.2,0.9c-2.1,1.1-3.7,2.8-4.7,4.9
					c-2.4,5.8,1.2,10.5,4.9,12.4c0.9,0.5,2.9,1.3,4.4,1c4.2-0.9,7.1-2.4,8.5-5.9c2.3-5.4-1.1-10.6-4.6-12.4
					C231.7,53.7,229.9,53.4,228.1,53.5L228.1,53.5z M254.4,64.1c0,1.1,0.3,2.2,0.8,3.2c0.9,0.7,1.9,1.2,3,1.6
					c0.9-0.5,1.8-0.8,2.8-0.9c0.3,0.8,1.9,1.9,1.7,2.6c-0.4,1.1-1.4,1.6-1.5,3c0.5,0.8,0.7,1.8,0.8,2.7c1,0.3,1.7,1.1,2.8,1.3
					c-0.1,1-0.2,2.1-0.3,3.1c-0.3,0.2-0.6,0.3-0.9,0.3c-0.6,0.4-1.7,0.2-2.3,0.6c-0.7,0.9-1.2,1.9-1.5,3c0.5,0.9,0.8,1.8,0.9,2.8
					c-0.6,0.4-1.9,1.8-2.5,1.7c-1.1-0.4-1.5-1.5-3-1.6c-0.7,0.4-1.5,0.6-2.3,0.7c-0.2,0.8-1.4,3-2.5,3c-0.6-0.4-2-0.2-2.7-0.4
					c-0.2-1-0.4-2.1-0.6-3.1c-1-0.5-1.9-1.4-3.1-1.6C243,86.7,242,87,241,87c-0.5-0.9-1.5-1.5-1.8-2.6c0.8-0.8,1.4-1.9,1.7-3
					c-0.4-0.8-0.7-1.8-0.8-2.7c-1-0.4-2.9-0.8-2.8-2.3c0.2-0.7,0.4-1.5,0.4-2.2c0.9-0.3,2.4-0.3,3.1-0.8c0.8-0.9,1.3-2,1.6-3.1
					c-0.3-0.9-0.6-1.8-0.9-2.7c0.9-0.5,1.6-1.6,2.7-1.8c0.8,0.9,1.9,1.5,3.1,1.6c0.6-0.5,1.8-0.3,2.5-0.8c0.6-0.9,1.2-1.8,1.6-2.8
					C252.2,63.9,253.3,64.1,254.4,64.1L254.4,64.1z M250.9,71.9c-0.5,0.3-1.4,0.2-1.9,0.4c-1.5,0.6-2.6,1.9-3.2,3.4
					c-1.3,3.6,2.2,8.2,5.7,7.5c2.8-0.6,6-2.7,5-6.5c-0.1-0.8-0.3-1.5-0.6-2.2C254.7,72.9,253.1,72.3,250.9,71.9L250.9,71.9z
					 M246.6,75c0.8,0.9,1.3,2.1,1.6,3.2c-0.6,0.4-1.1,0.8-1.6,1.4h-0.3C246,77.8,245.8,76.7,246.6,75z"/>
			</defs>
			<clipPath id="SVGID_00000158748264407854548130000009164639623608831890_">
				<use xlink:href="#SVGID_1_"  style="overflow:visible;"/>
			</clipPath>
			<g style="clip-path:url(#SVGID_00000158748264407854548130000009164639623608831890_);">
				
					<image style="overflow:visible;enable-background:new    ;" width="468" height="405" xlink:href="685DD0F5.png"  transform="matrix(0.13 0 0 0.13 204.58 38.93)">
				</image>
			</g>
		</g>
		<path class="st3" d="M324.5,62.5c0.8,0.1,1.6,0.2,2.5,0.2c5.7,0.1,11.4,0,17,0.2c8,0.3,16,0.7,24,1.1c0.2,0,0.3,0.1,0.5,0.2
			c-30.1,1.8-60.2,1.8-90.3,0.1v-0.5c1.1,0,2.3,0,3.4,0c6.3-0.2,12.6-0.6,18.9-0.7c7-0.2,14-0.2,21-0.3c0.2,0,0.4-0.1,0.6-0.2
			L324.5,62.5z"/>
		<path class="st3" d="M147.2,61c0.8,0.1,1.6,0.2,2.4,0.2c5.7,0.1,11.4,0,17,0.2c8,0.3,16,0.7,24,1.1c0.2,0,0.3,0.1,0.5,0.2
			c-30.1,1.8-60.2,1.9-90.3,0.1v-0.5c1.2,0,2.3,0,3.4,0c6.3-0.2,12.6-0.6,18.9-0.7c7-0.2,14-0.2,21-0.3c0.2,0,0.4-0.1,0.6-0.2
			L147.2,61z"/>
		<g class="st4">
			<path d="M84.5,102.5l-4.2,30.6h-2.2l-3.3-23c0-0.4,0-1-0.1-1.8c0,0.4,0,1-0.1,1.8l-3.3,23h-2.2L65,102.5h2.7l2.6,22.1
				c0,0.5,0,1.2,0.1,2.2c0-0.5,0-1.2,0.1-2.2l3.2-22.1h2.3l3.1,22.1c0,0.5,0.1,1.2,0.1,2.2c0-0.5,0-1.2,0.1-2.2l2.6-22.1H84.5z"/>
			<path d="M98.8,133.1h-2.6v-16.7l-5.7,0.2v16.5h-2.6v-30.6h2.6v12.1c1-0.1,2.1-0.3,3.1-0.4c1.3-0.2,2.3-0.3,3.1-0.3
				c1.4,0,2.2,0.7,2.2,2.1V133.1z"/>
			<path d="M113.6,130.9c0,1.5-0.7,2.2-2.2,2.2h-6.2c-1.5,0-2.2-0.7-2.2-2.2v-14.6c0-1.5,0.7-2.2,2.2-2.2h6.2c1.5,0,2.2,0.7,2.2,2.2
				v6.8l-0.9,0.9h-7.2v6.9h5.6v-3.5h2.5V130.9z M111.1,122v-5.7h-5.6v5.7H111.1z"/>
			<path d="M127.8,120.3h-2.6v-3.9l-4.8,0.2v16.5h-2.6v-19h2.6v0.5c0.9-0.1,1.7-0.3,2.6-0.4c1-0.2,1.9-0.2,2.6-0.2
				c1.4,0,2.1,0.7,2.1,2.1V120.3z"/>
			<path d="M141.7,130.9c0,1.5-0.7,2.2-2.2,2.2h-6.2c-1.5,0-2.2-0.7-2.2-2.2v-14.6c0-1.5,0.7-2.2,2.2-2.2h6.2c1.5,0,2.2,0.7,2.2,2.2
				v6.8l-0.9,0.9h-7.2v6.9h5.6v-3.5h2.5V130.9z M139.2,122v-5.7h-5.6v5.7H139.2z"/>
			<path d="M164.6,133.1h-2.6v-0.5c-1,0.1-2.1,0.3-3.1,0.4c-1.3,0.2-2.3,0.2-3.1,0.2c-1.4,0-2.1-0.7-2.1-2.1v-6.9
				c0-1.5,0.7-2.2,2.2-2.2h6.1v-5.7h-5.6v3.2H154v-3.2c0-1.5,0.7-2.2,2.2-2.2h6.2c1.5,0,2.2,0.7,2.2,2.2V133.1z M162.1,130.7V124
				h-5.8v6.8L162.1,130.7z"/>
			<path d="M178.8,120.3h-2.6v-3.9l-4.8,0.2v16.5h-2.6v-19h2.6v0.5c0.9-0.1,1.7-0.3,2.6-0.4c1-0.2,1.9-0.2,2.6-0.2
				c1.4,0,2.1,0.7,2.1,2.1V120.3z"/>
			<path d="M192.7,130.9c0,1.5-0.7,2.2-2.2,2.2h-6.2c-1.5,0-2.2-0.7-2.2-2.2v-14.6c0-1.5,0.7-2.2,2.2-2.2h6.2c1.5,0,2.2,0.7,2.2,2.2
				v6.8l-0.9,0.9h-7.2v6.9h5.6v-3.5h2.5V130.9z M190.2,122v-5.7h-5.6v5.7H190.2z"/>
			<path d="M215.6,114.1l-4.6,18.8l-1.9,7.4h-2.6l1.9-7.4l-4.7-18.8h2.7l3.2,15l3.3-15H215.6z"/>
			<path d="M229.7,130.9c0,1.5-0.7,2.2-2.2,2.2h-6.5c-1.5,0-2.2-0.7-2.2-2.2v-14.6c0-1.5,0.7-2.2,2.2-2.2h6.5c1.5,0,2.2,0.7,2.2,2.2
				V130.9z M227.1,130.8v-14.4h-5.7v14.4H227.1z"/>
			<path d="M244.8,133.1h-2.6v-0.5c-1,0.1-2.1,0.3-3.1,0.4c-1.2,0.2-2.3,0.2-3.1,0.2c-1.4,0-2.1-0.7-2.1-2.1v-17h2.6v16.7l5.8-0.2
				v-16.5h2.6V133.1z"/>
			<path d="M259,120.3h-2.6v-3.9l-4.8,0.2v16.5H249v-19h2.6v0.5c0.9-0.1,1.7-0.3,2.6-0.4c1-0.2,1.9-0.2,2.6-0.2
				c1.4,0,2.1,0.7,2.1,2.1V120.3z"/>
		</g>
		<g class="st4">
			<path class="st3" d="M287.8,113.1H284l-1.6,9.4h4v2.2H282l-1.5,8.4H278l1.5-8.4h-4.7l-1.4,8.4h-2.5l1.5-8.4H269v-2.2h3.8l1.6-9.4
				h-4v-2.2h4.4l1.5-8.4h2.5l-1.5,8.4h4.7l1.4-8.4h2.5l-1.5,8.4h3.4V113.1z M281.6,113.1h-4.7l-1.6,9.4h4.7L281.6,113.1z"/>
			<path class="st3" d="M303.6,130.9c0,0.6-0.2,1.2-0.6,1.6s-0.9,0.6-1.6,0.6h-8c-0.6,0-1.2-0.2-1.6-0.6s-0.6-0.9-0.6-1.6v-10
				c0-0.9,0.3-1.5,1-2l3-1.9l-2.9-1.8c-0.7-0.4-1-1.1-1-2v-8.6c0-0.6,0.2-1.2,0.6-1.6s0.9-0.6,1.6-0.6h7.9c0.6,0,1.2,0.2,1.6,0.6
				s0.6,0.9,0.6,1.6v8.6c0,0.9-0.3,1.6-1,2l-2.9,1.8l2.9,1.9c0.7,0.5,1.1,1.1,1.1,2V130.9z M300.8,130.7v-10.1l-3.5-2.3l-3.5,2.3
				v10.1H300.8z M300.8,113.7v-8.8H294v8.8l3.4,2.3L300.8,113.7z"/>
		</g>
		<g class="st4">
			<path class="st5" d="M287.8,113.1H284l-1.6,9.4h4v2.2H282l-1.5,8.4H278l1.5-8.4h-4.7l-1.4,8.4h-2.5l1.5-8.4H269v-2.2h3.8l1.6-9.4
				h-4v-2.2h4.4l1.5-8.4h2.5l-1.5,8.4h4.7l1.4-8.4h2.5l-1.5,8.4h3.4V113.1z M281.6,113.1h-4.7l-1.6,9.4h4.7L281.6,113.1z"/>
			<path class="st5" d="M303.6,130.9c0,0.6-0.2,1.2-0.6,1.6s-0.9,0.6-1.6,0.6h-8c-0.6,0-1.2-0.2-1.6-0.6s-0.6-0.9-0.6-1.6v-10
				c0-0.9,0.3-1.5,1-2l3-1.9l-2.9-1.8c-0.7-0.4-1-1.1-1-2v-8.6c0-0.6,0.2-1.2,0.6-1.6s0.9-0.6,1.6-0.6h7.9c0.6,0,1.2,0.2,1.6,0.6
				s0.6,0.9,0.6,1.6v8.6c0,0.9-0.3,1.6-1,2l-2.9,1.8l2.9,1.9c0.7,0.5,1.1,1.1,1.1,2V130.9z M300.8,130.7v-10.1l-3.5-2.3l-3.5,2.3
				v10.1H300.8z M300.8,113.7v-8.8H294v8.8l3.4,2.3L300.8,113.7z"/>
		</g>
		<g class="st4">
			<path d="M326.8,133.1h-2.6v-0.5c-1,0.1-2.1,0.3-3.1,0.4c-1.3,0.2-2.3,0.2-3.1,0.2c-1.4,0-2.1-0.7-2.1-2.1v-6.9
				c0-1.5,0.7-2.2,2.2-2.2h6.1v-5.7h-5.6v3.2h-2.5v-3.2c0-1.5,0.7-2.2,2.2-2.2h6.2c1.5,0,2.2,0.7,2.2,2.2V133.1z M324.2,130.7V124
				h-5.8v6.8L324.2,130.7z"/>
			<path d="M341.9,133.1h-2.6v-16.7l-5.7,0.2v16.5H331v-19h2.6v0.5c1-0.1,2-0.3,3.1-0.4c1.2-0.2,2.3-0.2,3.1-0.2
				c1.4,0,2.2,0.7,2.2,2.1V133.1z"/>
			<path d="M356.9,133.1h-2.6v-0.5c-2.8,0.4-4.3,0.6-4.6,0.6c-1.1,0-2-0.4-2.7-1.1s-1-1.7-1-2.8v-11.1c0-1.2,0.4-2.1,1.2-2.9
				s1.7-1.2,2.9-1.2h4.3v-11.6h2.6V133.1z M354.4,130.7v-14.4h-3.6c-1.4,0-2.1,0.7-2.1,2.2v10.2c0,1.5,0.7,2.2,2.1,2.2
				C351.1,130.9,352.3,130.9,354.4,130.7z"/>
		</g>
		<g class="st4">
			<path class="st3" d="M386.8,113.1H383l-1.6,9.4h4v2.2h-4.4l-1.5,8.4H377l1.5-8.4h-4.7l-1.4,8.4h-2.5l1.5-8.4h-3.4v-2.2h3.8
				l1.6-9.4h-4v-2.2h4.4l1.5-8.4h2.5l-1.5,8.4h4.7l1.4-8.4h2.5l-1.5,8.4h3.4V113.1z M380.5,113.1h-4.7l-1.6,9.4h4.7L380.5,113.1z"/>
			<path class="st3" d="M402.2,130.9c0,0.6-0.2,1.2-0.6,1.6s-0.9,0.6-1.6,0.6h-7.6c-0.6,0-1.2-0.2-1.6-0.6s-0.6-0.9-0.6-1.6v-6.8
				h2.7v6.5h6.6v-11.3h-7.2c-0.6,0-1.2-0.2-1.6-0.6s-0.6-0.9-0.6-1.6v-12.5c0-0.6,0.2-1.2,0.6-1.6s0.9-0.6,1.6-0.6h7.8
				c0.6,0,1.2,0.2,1.6,0.6s0.6,0.9,0.6,1.6V130.9z M399.5,117v-12.1h-6.7V117H399.5z"/>
		</g>
		<g class="st4">
			<path class="st5" d="M386.8,113.1H383l-1.6,9.4h4v2.2h-4.4l-1.5,8.4H377l1.5-8.4h-4.7l-1.4,8.4h-2.5l1.5-8.4h-3.4v-2.2h3.8
				l1.6-9.4h-4v-2.2h4.4l1.5-8.4h2.5l-1.5,8.4h4.7l1.4-8.4h2.5l-1.5,8.4h3.4V113.1z M380.5,113.1h-4.7l-1.6,9.4h4.7L380.5,113.1z"/>
			<path class="st5" d="M402.2,130.9c0,0.6-0.2,1.2-0.6,1.6s-0.9,0.6-1.6,0.6h-7.6c-0.6,0-1.2-0.2-1.6-0.6s-0.6-0.9-0.6-1.6v-6.8
				h2.7v6.5h6.6v-11.3h-7.2c-0.6,0-1.2-0.2-1.6-0.6s-0.6-0.9-0.6-1.6v-12.5c0-0.6,0.2-1.2,0.6-1.6s0.9-0.6,1.6-0.6h7.8
				c0.6,0,1.2,0.2,1.6,0.6s0.6,0.9,0.6,1.6V130.9z M399.5,117v-12.1h-6.7V117H399.5z"/>
		</g>
		<g class="st4">
			<path d="M208.7,181.1H205c-1.5,0-2.2-0.7-2.2-2.2v-14.5h-2.3v-2.3h2.3v-5.9h2.6v5.9h3.3v2.3h-3.3v14.4h3.3V181.1z"/>
			<path d="M214.8,157.9h-2.6v-3.3h2.6V157.9z M214.8,181.1h-2.6v-19h2.6V181.1z"/>
			<path d="M221.9,181.1h-2.6v-30.6h2.6V181.1z"/>
			<path d="M236.9,178.9c0,1.5-0.7,2.2-2.2,2.2h-6.2c-1.5,0-2.2-0.7-2.2-2.2v-14.6c0-1.5,0.7-2.2,2.2-2.2h6.2c1.5,0,2.2,0.7,2.2,2.2
				v6.8l-0.9,0.9h-7.2v6.9h5.6v-3.5h2.5V178.9z M234.4,170v-5.7h-5.6v5.7H234.4z"/>
			<path d="M251.5,178.9c0,1.5-0.7,2.2-2.2,2.2h-6c-1.5,0-2.2-0.7-2.2-2.2v-4.3h2.6v4.3h5.3v-3.8l-6.8-5.6c-0.7-0.5-1-1.2-1-2v-3.2
				c0-1.5,0.7-2.2,2.2-2.2h5.9c1.5,0,2.2,0.7,2.2,2.2v3.8h-2.5v-3.8h-5.3v3.3l6.9,5.6c0.6,0.5,1,1.2,1,2.1V178.9z"/>
			<path d="M266.9,159.6c0,0.8-0.2,1.5-0.6,2.1l-4,6.1v6.5h-2.7v-5.8c0-0.9,0.2-1.6,0.6-2.1l4-6v-7.3h-6.2v6.9h-2.7v-7.1
				c0-0.6,0.2-1.2,0.6-1.6s0.9-0.6,1.6-0.6h7.3c0.7,0,1.2,0.2,1.6,0.6s0.6,0.9,0.6,1.6V159.6z M262.4,181.1h-3v-3.4h3V181.1z"/>
		</g>
		<g class="st4">
			<path class="st3" d="M82.7,229.4l-2.6,8.7c-0.3,0.9-0.8,2.3-1.3,4.3v8.3h-1.9v-8.3c-0.1-0.7-0.3-1.4-0.6-2.2
				c-0.4-1.3-0.7-2-0.7-2.1l-2.6-8.7c0,0,0,0,0-0.1h1.9l2.9,10.7l2.9-10.7h1.9C82.7,229.4,82.7,229.4,82.7,229.4z"/>
			<path class="st3" d="M92.4,249.1c0,1-0.5,1.5-1.5,1.5h-4.6c-1,0-1.5-0.5-1.5-1.5v-10.2c0-1,0.5-1.5,1.5-1.5h4.6
				c1,0,1.5,0.5,1.5,1.5V249.1z M90.6,249.1V239h-4v10.1H90.6z"/>
			<path class="st3" d="M103,250.7h-1.8v-0.4c-0.7,0.1-1.5,0.2-2.2,0.3c-0.9,0.1-1.6,0.2-2.2,0.2c-1,0-1.5-0.5-1.5-1.5v-11.9h1.8
				v11.7l4-0.1v-11.6h1.8V250.7z"/>
			<path class="st3" d="M124.8,250.7H123V239l-4,0.1v11.6h-1.8V239l-4,0.1v11.6h-1.8v-13.3h1.8v0.4c0.7-0.1,1.4-0.2,2.1-0.3
				c0.9-0.1,1.6-0.2,2.1-0.2c0.6,0,1,0.2,1.2,0.5c0.8-0.1,1.5-0.2,2.3-0.3c1-0.1,1.7-0.2,2.3-0.2c1,0,1.5,0.5,1.5,1.5V250.7z"/>
			<path class="st3" d="M135.4,250.7h-1.8v-0.4c-0.7,0.1-1.5,0.2-2.2,0.3c-0.9,0.1-1.6,0.2-2.2,0.2c-1,0-1.5-0.5-1.5-1.5v-11.9h1.8
				v11.7l4-0.1v-11.6h1.8V250.7z"/>
			<path class="st3" d="M145.5,249.1c0,1-0.5,1.5-1.5,1.5h-4.2c-1,0-1.5-0.5-1.5-1.5v-3h1.8v3h3.7v-2.7l-4.8-3.9
				c-0.5-0.4-0.7-0.8-0.7-1.4v-2.2c0-1,0.5-1.5,1.5-1.5h4.1c1,0,1.5,0.5,1.5,1.5v2.7h-1.8V239h-3.7v2.3l4.8,3.9
				c0.4,0.4,0.7,0.8,0.7,1.4V249.1z"/>
			<path class="st3" d="M153.2,250.7h-2.6c-1,0-1.5-0.5-1.5-1.5V239h-1.6v-1.6h1.6v-4.1h1.8v4.1h2.3v1.6h-2.3v10.1h2.3V250.7z"/>
			<path class="st3" d="M168.4,249.1c0,1-0.5,1.5-1.5,1.5h-4.3c-1,0-1.5-0.5-1.5-1.5v-10.2c0-1,0.5-1.5,1.5-1.5h4.3
				c1,0,1.5,0.5,1.5,1.5v2.7h-1.8V239h-3.8v10.1h3.8v-3h1.8V249.1z"/>
			<path class="st3" d="M179,250.7h-1.8V239l-4,0.1v11.6h-1.8v-21.4h1.8v8.5c0.7-0.1,1.4-0.2,2.2-0.3c0.9-0.1,1.6-0.2,2.1-0.2
				c1,0,1.5,0.5,1.5,1.5V250.7z"/>
			<path class="st3" d="M189.6,249.1c0,1-0.5,1.5-1.5,1.5h-4.6c-1,0-1.5-0.5-1.5-1.5v-10.2c0-1,0.5-1.5,1.5-1.5h4.6
				c1,0,1.5,0.5,1.5,1.5V249.1z M187.8,249.1V239h-4v10.1H187.8z"/>
			<path class="st3" d="M200.2,249.1c0,1-0.5,1.5-1.5,1.5h-4.6c-1,0-1.5-0.5-1.5-1.5v-10.2c0-1,0.5-1.5,1.5-1.5h4.6
				c1,0,1.5,0.5,1.5,1.5V249.1z M198.4,249.1V239h-4v10.1H198.4z"/>
			<path class="st3" d="M210.3,249.1c0,1-0.5,1.5-1.5,1.5h-4.2c-1,0-1.5-0.5-1.5-1.5v-3h1.8v3h3.7v-2.7l-4.8-3.9
				c-0.5-0.4-0.7-0.8-0.7-1.4v-2.2c0-1,0.5-1.5,1.5-1.5h4.1c1,0,1.5,0.5,1.5,1.5v2.7h-1.8V239h-3.7v2.3l4.8,3.9
				c0.4,0.4,0.7,0.8,0.7,1.4V249.1z"/>
			<path class="st3" d="M220.6,249.1c0,1-0.5,1.5-1.5,1.5h-4.4c-1,0-1.5-0.5-1.5-1.5v-10.2c0-1,0.5-1.5,1.5-1.5h4.4
				c1,0,1.5,0.5,1.5,1.5v4.8l-0.6,0.6H215v4.8h3.9v-2.4h1.8V249.1z M218.9,242.9v-4H215v4H218.9z"/>
			<path class="st3" d="M236.8,249.1c0,1-0.5,1.5-1.5,1.5h-4.6c-1,0-1.5-0.5-1.5-1.5v-10.2c0-1,0.5-1.5,1.5-1.5h4.6
				c1,0,1.5,0.5,1.5,1.5V249.1z M235,249.1V239h-4v10.1H235z"/>
			<path class="st3" d="M247.4,250.7h-1.8V239l-4,0.1v11.6h-1.8v-13.3h1.8v0.4c0.7-0.1,1.4-0.2,2.1-0.3c0.9-0.1,1.6-0.2,2.2-0.2
				c1,0,1.5,0.5,1.5,1.5V250.7z"/>
			<path class="st3" d="M257.8,249.1c0,1-0.5,1.5-1.5,1.5h-4.4c-1,0-1.5-0.5-1.5-1.5v-10.2c0-1,0.5-1.5,1.5-1.5h4.4
				c1,0,1.5,0.5,1.5,1.5v4.8l-0.6,0.6h-5.1v4.8h3.9v-2.4h1.8V249.1z M256,242.9v-4h-3.9v4H256z"/>
			<path class="st3" d="M273.9,250.7h-1.8V239l-4,0.1v11.6h-1.8v-13.3h1.8v0.4c0.7-0.1,1.4-0.2,2.1-0.3c0.9-0.1,1.6-0.2,2.2-0.2
				c1,0,1.5,0.5,1.5,1.5V250.7z"/>
			<path class="st3" d="M284.5,250.7h-1.8v-0.4c-0.7,0.1-1.5,0.2-2.2,0.3c-0.9,0.1-1.6,0.2-2.2,0.2c-1,0-1.5-0.5-1.5-1.5v-11.9h1.8
				v11.7l4-0.1v-11.6h1.8V250.7z"/>
			<path class="st3" d="M300.8,250.7H299V239l-4,0.1v11.6h-1.8V239l-4,0.1v11.6h-1.8v-13.3h1.8v0.4c0.7-0.1,1.4-0.2,2.1-0.3
				c0.9-0.1,1.6-0.2,2.1-0.2c0.6,0,1,0.2,1.2,0.5c0.8-0.1,1.5-0.2,2.3-0.3c1-0.1,1.7-0.2,2.3-0.2c1,0,1.5,0.5,1.5,1.5V250.7z"/>
			<path class="st3" d="M311.4,247.8c0,0.8-0.3,1.5-0.8,2s-1.2,0.8-2,0.8h-4.8v-21.4h1.8v8.5c0.7-0.1,1.4-0.2,2.2-0.3
				c0.9-0.1,1.6-0.2,2.1-0.2c1,0,1.5,0.5,1.5,1.5V247.8z M309.6,247.6V239l-4,0.1v10h2.5C309.1,249.1,309.6,248.6,309.6,247.6z"/>
			<path class="st3" d="M321.8,249.1c0,1-0.5,1.5-1.5,1.5h-4.4c-1,0-1.5-0.5-1.5-1.5v-10.2c0-1,0.5-1.5,1.5-1.5h4.4
				c1,0,1.5,0.5,1.5,1.5v4.8l-0.6,0.6h-5.1v4.8h3.9v-2.4h1.8V249.1z M320,242.9v-4h-3.9v4H320z"/>
			<path class="st3" d="M331.8,241.8H330V239l-3.3,0.1v11.6h-1.8v-13.3h1.8v0.4c0.6-0.1,1.2-0.2,1.8-0.3c0.7-0.1,1.3-0.2,1.8-0.2
				c1,0,1.5,0.5,1.5,1.5V241.8z"/>
			<path class="st3" d="M347.2,247.8c0,0.8-0.3,1.5-0.8,2s-1.2,0.8-2,0.8h-4.8v-21.4h1.8v8.5c0.7-0.1,1.4-0.2,2.2-0.3
				c0.9-0.1,1.6-0.2,2.1-0.2c1,0,1.5,0.5,1.5,1.5V247.8z M345.4,247.6V239l-4,0.1v10h2.5C344.9,249.1,345.4,248.6,345.4,247.6z"/>
			<path class="st3" d="M357.6,249.1c0,1-0.5,1.5-1.5,1.5h-4.4c-1,0-1.5-0.5-1.5-1.5v-10.2c0-1,0.5-1.5,1.5-1.5h4.4
				c1,0,1.5,0.5,1.5,1.5v4.8l-0.6,0.6h-5.1v4.8h3.9v-2.4h1.8V249.1z M355.8,242.9v-4h-3.9v4H355.8z"/>
			<path class="st3" d="M365.6,230.9h-2.6v6.5h2.3v1.6h-2.3v11.7h-1.8V239h-1.5v-1.6h1.5v-6.5c0-1,0.5-1.5,1.5-1.5h2.8V230.9z"/>
			<path class="st3" d="M374.9,249.1c0,1-0.5,1.5-1.5,1.5h-4.6c-1,0-1.5-0.5-1.5-1.5v-10.2c0-1,0.5-1.5,1.5-1.5h4.6
				c1,0,1.5,0.5,1.5,1.5V249.1z M373.1,249.1V239h-4v10.1H373.1z"/>
			<path class="st3" d="M384.8,241.8H383V239l-3.3,0.1v11.6h-1.8v-13.3h1.8v0.4c0.6-0.1,1.2-0.2,1.8-0.3c0.7-0.1,1.3-0.2,1.8-0.2
				c1,0,1.5,0.5,1.5,1.5V241.8z"/>
			<path class="st3" d="M394.6,249.1c0,1-0.5,1.5-1.5,1.5h-4.4c-1,0-1.5-0.5-1.5-1.5v-10.2c0-1,0.5-1.5,1.5-1.5h4.4
				c1,0,1.5,0.5,1.5,1.5v4.8l-0.6,0.6h-5.1v4.8h3.9v-2.4h1.8V249.1z M392.8,242.9v-4h-3.9v4H392.8z"/>
		</g>
		<g class="st4">
			<path class="st3" d="M155.9,284.3h-1.8v-0.4c-0.7,0.1-1.4,0.2-2.2,0.3c-0.9,0.1-1.6,0.2-2.1,0.2c-1,0-1.5-0.5-1.5-1.5V278
				c0-1,0.5-1.5,1.5-1.5h4.3v-4h-3.9v2.3h-1.8v-2.2c0-1,0.5-1.5,1.5-1.5h4.4c1,0,1.5,0.5,1.5,1.5V284.3z M154.1,282.6v-4.7h-4.1v4.8
				L154.1,282.6z"/>
			<path class="st3" d="M166,282.7c0,1-0.5,1.5-1.5,1.5h-4.2c-1,0-1.5-0.5-1.5-1.5v-3h1.8v3h3.7v-2.7l-4.8-3.9
				c-0.5-0.4-0.7-0.8-0.7-1.4v-2.2c0-1,0.5-1.5,1.5-1.5h4.1c1,0,1.5,0.5,1.5,1.5v2.7h-1.8v-2.6h-3.7v2.3l4.8,3.9
				c0.4,0.4,0.7,0.8,0.7,1.4V282.7z"/>
			<path class="st3" d="M176.4,284.3h-2l-3.7-6.8v6.8h-1.8v-21.4h1.8v13.6l3.4-5.5h2v0.1l-3.9,5.9L176.4,284.3z"/>
			<path class="st3" d="M180.2,268.1h-1.8v-2.3h1.8V268.1z M180.2,284.3h-1.8V271h1.8V284.3z"/>
			<path class="st3" d="M190.9,284.3h-1.8v-11.7l-4,0.1v11.6h-1.8V271h1.8v0.4c0.7-0.1,1.4-0.2,2.1-0.3c0.9-0.1,1.6-0.2,2.2-0.2
				c1,0,1.5,0.5,1.5,1.5V284.3z"/>
			<path class="st3" d="M201.4,287.8c0,1-0.5,1.5-1.5,1.5h-4.3c-1,0-1.6-0.7-1.6-2c0-0.2,0-0.4,0-0.7s0-0.5,0-0.7h1.8v1.8h3.8v-3.5
				h-3c-0.8,0-1.5-0.3-2-0.8c-0.5-0.5-0.8-1.2-0.8-2v-7.8c0-0.8,0.2-1.4,0.7-2c0.5-0.5,1.1-0.8,1.9-0.8c0.2,0,1.3,0.2,3.2,0.5V271
				h1.8V287.8z M199.6,282.7v-10c-1.4-0.1-2.3-0.1-2.5-0.1c-1,0-1.5,0.5-1.5,1.5v7.1c0,1,0.5,1.5,1.5,1.5H199.6z"/>
			<path class="st3" d="M214.7,284.3h-2.6c-1,0-1.5-0.5-1.5-1.5v-10.2H209V271h1.6v-4.1h1.8v4.1h2.3v1.6h-2.3v10.1h2.3V284.3z"/>
			<path class="st3" d="M224.7,284.3h-1.8v-11.7l-4,0.1v11.6H217v-21.4h1.8v8.5c0.7-0.1,1.4-0.2,2.2-0.3c0.9-0.1,1.6-0.2,2.1-0.2
				c1,0,1.5,0.5,1.5,1.5V284.3z"/>
			<path class="st3" d="M235,282.7c0,1-0.5,1.5-1.5,1.5h-4.4c-1,0-1.5-0.5-1.5-1.5v-10.2c0-1,0.5-1.5,1.5-1.5h4.4
				c1,0,1.5,0.5,1.5,1.5v4.8l-0.6,0.6h-5.1v4.8h3.9v-2.4h1.8V282.7z M233.3,276.5v-4h-3.9v4H233.3z"/>
			<path class="st3" d="M251.1,289.3h-1.8v-5h-3c-0.8,0-1.5-0.3-2-0.8s-0.8-1.2-0.8-2v-7.8c0-0.8,0.2-1.4,0.7-2s1.1-0.8,1.9-0.8
				c0.2,0,1.3,0.2,3.2,0.5V271h1.8V289.3z M249.3,282.7v-10c-1.4-0.1-2.3-0.1-2.5-0.1c-1,0-1.5,0.5-1.5,1.5v7.1c0,1,0.5,1.5,1.5,1.5
				H249.3z"/>
			<path class="st3" d="M261.7,284.3h-1.8v-0.4c-0.7,0.1-1.5,0.2-2.2,0.3c-0.9,0.1-1.6,0.2-2.2,0.2c-1,0-1.5-0.5-1.5-1.5V271h1.8
				v11.7l4-0.1V271h1.8V284.3z"/>
			<path class="st3" d="M272.1,282.7c0,1-0.5,1.5-1.5,1.5h-4.4c-1,0-1.5-0.5-1.5-1.5v-10.2c0-1,0.5-1.5,1.5-1.5h4.4
				c1,0,1.5,0.5,1.5,1.5v4.8l-0.6,0.6h-5.1v4.8h3.9v-2.4h1.8V282.7z M270.3,276.5v-4h-3.9v4H270.3z"/>
			<path class="st3" d="M282.3,282.7c0,1-0.5,1.5-1.5,1.5h-4.2c-1,0-1.5-0.5-1.5-1.5v-3h1.8v3h3.7v-2.7l-4.8-3.9
				c-0.5-0.4-0.7-0.8-0.7-1.4v-2.2c0-1,0.5-1.5,1.5-1.5h4.1c1,0,1.5,0.5,1.5,1.5v2.7h-1.8v-2.6h-3.7v2.3l4.8,3.9
				c0.4,0.4,0.7,0.8,0.7,1.4V282.7z"/>
			<path class="st3" d="M290,284.3h-2.6c-1,0-1.5-0.5-1.5-1.5v-10.2h-1.6V271h1.6v-4.1h1.8v4.1h2.3v1.6h-2.3v10.1h2.3V284.3z"/>
			<path class="st3" d="M294.2,268.1h-1.8v-2.3h1.8V268.1z M294.2,284.3h-1.8V271h1.8V284.3z"/>
			<path class="st3" d="M304.9,282.7c0,1-0.5,1.5-1.5,1.5h-4.6c-1,0-1.5-0.5-1.5-1.5v-10.2c0-1,0.5-1.5,1.5-1.5h4.6
				c1,0,1.5,0.5,1.5,1.5V282.7z M303.1,282.7v-10.1h-4v10.1H303.1z"/>
			<path class="st3" d="M315.5,284.3h-1.8v-11.7l-4,0.1v11.6h-1.8V271h1.8v0.4c0.7-0.1,1.4-0.2,2.1-0.3c0.9-0.1,1.6-0.2,2.2-0.2
				c1,0,1.5,0.5,1.5,1.5V284.3z"/>
			<path class="st3" d="M320.3,284.3h-2.1v-2.4h2.1V284.3z"/>
		</g>
	</g>
</g>
</svg>
