<svg xmlns="http://www.w3.org/2000/svg" xmlns:xlink="http://www.w3.org/1999/xlink" viewBox="0 0 469.4 313"><defs><clipPath id="clip-path"><path d="M226.2,87.4c-.6-1.8-1.2-3.7-1.8-5.6-2.1-.2-3.3-1.9-5.3-2.1a18.87,18.87,0,0,1-5,2.3c-.8-1.2-3.6-2.9-3.9-4.3a18.87,18.87,0,0,0,2.3-5,11.24,11.24,0,0,1-1.6-2.8c-.3-.7-.2-1.4-.6-1.9a17.66,17.66,0,0,0-5.6-1.9V60.2l.1-.1c1.9-.1,3.7-1.3,5.6-1.8.1-2,1.6-3.2,2.1-4.9.1-1.1-1.9-3.8-2.3-5.3a25.22,25.22,0,0,0,4-4c1.7.8,3.5,2.3,5.6,2.5,1.1-1.1,3.3-1,4.5-1.9.9-1,1.2-4.6,2.2-5.2.6-.4,4.9-.2,5.7,0a25.83,25.83,0,0,0,1.9,5.3c2,.2,3.3,1.5,5,1.8a29.18,29.18,0,0,1,5-2.5,25.22,25.22,0,0,0,4,4c-.7,1.7-2.2,3.7-2.4,5.6.7.8,1.6,4.4,2.1,4.7,1.2,1.1,3.6.9,4.9,1.9.4.6.1,2.3.1,3.1a.9.9,0,0,1-.5.1,1.67,1.67,0,0,0-1.2-.1c-1.1.5-.9,2.3-1.9,2.8a18.24,18.24,0,0,1-2.5.7c-.5-.3-2.4-1.8-3.1-1.6s-1.2,1.1-1.7,1.4c-.3.2-.9.4-1,.8-.2.6.8,2.5.9,3.4a6.11,6.11,0,0,0-1.3,2.2,11.56,11.56,0,0,0-3.2.8,2,2,0,0,0-.1.8,10.32,10.32,0,0,0-.4,3c.8.4,2.8,1,3,2.1a.75.75,0,0,1,.1.5h-.1a1.78,1.78,0,0,0-1-.4c-.8.9-4.4,1.7-4.8,2.3a15.65,15.65,0,0,0-1.4,3.8c-.2.4-.2,1.4-.5,1.6Zm1.9-33.9c-.8.5-2.4.5-3.2.9a10.62,10.62,0,0,0-4.7,4.9c-2.4,5.8,1.2,10.5,4.9,12.4a7.57,7.57,0,0,0,4.4,1c4.2-.9,7.1-2.4,8.5-5.9,2.3-5.4-1.1-10.6-4.6-12.4a12.11,12.11,0,0,0-5.3-.9Zm26.3,10.6a7.22,7.22,0,0,0,.8,3.2,10.81,10.81,0,0,0,3,1.6A7.09,7.09,0,0,1,261,68c.3.8,1.9,1.9,1.7,2.6-.4,1.1-1.4,1.6-1.5,3a6.49,6.49,0,0,1,.8,2.7c1,.3,1.7,1.1,2.8,1.3-.1,1-.2,2.1-.3,3.1a1.61,1.61,0,0,1-.9.3c-.6.4-1.7.2-2.3.6a8.47,8.47,0,0,0-1.5,3,7.09,7.09,0,0,1,.9,2.8c-.6.4-1.9,1.8-2.5,1.7-1.1-.4-1.5-1.5-3-1.6a6.15,6.15,0,0,1-2.3.7c-.2.8-1.4,3-2.5,3-.6-.4-2-.2-2.7-.4-.2-1-.4-2.1-.6-3.1-1-.5-1.9-1.4-3.1-1.6a5.79,5.79,0,0,1-3,.9c-.5-.9-1.5-1.5-1.8-2.6a6.91,6.91,0,0,0,1.7-3,8.42,8.42,0,0,1-.8-2.7c-1-.4-2.9-.8-2.8-2.3a8.51,8.51,0,0,0,.4-2.2c.9-.3,2.4-.3,3.1-.8a7.67,7.67,0,0,0,1.6-3.1l-.9-2.7c.9-.5,1.6-1.6,2.7-1.8a4.7,4.7,0,0,0,3.1,1.6c.6-.5,1.8-.3,2.5-.8a15.57,15.57,0,0,0,1.6-2.8,23.33,23.33,0,0,0,3,.3Zm-3.5,7.8c-.5.3-1.4.2-1.9.4a6,6,0,0,0-3.2,3.4c-1.3,3.6,2.2,8.2,5.7,7.5,2.8-.6,6-2.7,5-6.5a7.94,7.94,0,0,0-.6-2.2c-1.2-1.6-2.8-2.2-5-2.6ZM246.6,75a8.05,8.05,0,0,1,1.6,3.2,7,7,0,0,0-1.6,1.4h-.3C246,77.8,245.8,76.7,246.6,75Z" fill="none"/></clipPath></defs><g id="Layer_2" data-name="Layer 2"><g id="Layer_1-2" data-name="Layer 1"><g id="Layer_2-2" data-name="Layer 2"><g id="Card"><path d="M20.5.5H448.9a20.06,20.06,0,0,1,20,20v272a20.06,20.06,0,0,1-20,20H20.5a20.06,20.06,0,0,1-20-20V20.5A20.06,20.06,0,0,1,20.5.5Z" fill="#fff" stroke="#000" stroke-miterlimit="10"/><path d="M79.2,16.9h312a65.47,65.47,0,0,1,65.5,65.5V234.6a65.47,65.47,0,0,1-65.5,65.5H79.2a65.47,65.47,0,0,1-65.5-65.5V82.3A65.45,65.45,0,0,1,79.2,16.9Z" fill="#d6ddb6"/><g clip-path="url(#clip-path)"><image width="468" height="405" transform="translate(204.58 38.93) scale(0.13)" xlink:href="SVG/685DD0F5.png" style="isolation:isolate"/></g><path d="M324.5,62.5a19.48,19.48,0,0,0,2.5.2c5.7.1,11.4,0,17,.2,8,.3,16,.7,24,1.1.2,0,.3.1.5.2a777.24,777.24,0,0,1-90.3.1v-.5h3.4c6.3-.2,12.6-.6,18.9-.7,7-.2,14-.2,21-.3a1.42,1.42,0,0,0,.6-.2Z" fill="#65a91b"/><path d="M147.2,61a19.42,19.42,0,0,0,2.4.2c5.7.1,11.4,0,17,.2,8,.3,16,.7,24,1.1.2,0,.3.1.5.2a755.68,755.68,0,0,1-90.3.1v-.5h3.4c6.3-.2,12.6-.6,18.9-.7,7-.2,14-.2,21-.3a1.42,1.42,0,0,0,.6-.2Z" fill="#65a91b"/><g style="isolation:isolate"><path d="M84.5,102.5l-4.2,30.6H78.1l-3.3-23a13.57,13.57,0,0,0-.1-1.8,13.57,13.57,0,0,1-.1,1.8l-3.3,23H69.1L65,102.5h2.7l2.6,22.1a20.34,20.34,0,0,0,.1,2.2,20.34,20.34,0,0,1,.1-2.2l3.2-22.1H76l3.1,22.1c0,.5.1,1.2.1,2.2a20.34,20.34,0,0,1,.1-2.2l2.6-22.1Z"/><path d="M98.8,133.1H96.2V116.4l-5.7.2v16.5H87.9V102.5h2.6v12.1c1-.1,2.1-.3,3.1-.4a21.12,21.12,0,0,1,3.1-.3,1.93,1.93,0,0,1,2.2,2.1v17.1Z"/><path d="M113.6,130.9a1.92,1.92,0,0,1-2.2,2.2h-6.2a1.92,1.92,0,0,1-2.2-2.2V116.3a1.92,1.92,0,0,1,2.2-2.2h6.2a1.92,1.92,0,0,1,2.2,2.2v6.8l-.9.9h-7.2v6.9h5.6v-3.5h2.5Zm-2.5-8.9v-5.7h-5.6V122Z"/><path d="M127.8,120.3h-2.6v-3.9l-4.8.2v16.5h-2.6v-19h2.6v.5c.9-.1,1.7-.3,2.6-.4a12.78,12.78,0,0,1,2.6-.2,1.86,1.86,0,0,1,2.1,2.1v4.2Z"/><path d="M141.7,130.9a1.92,1.92,0,0,1-2.2,2.2h-6.2a1.92,1.92,0,0,1-2.2-2.2V116.3a1.92,1.92,0,0,1,2.2-2.2h6.2a1.92,1.92,0,0,1,2.2,2.2v6.8l-.9.9h-7.2v6.9h5.6v-3.5h2.5v3.5Zm-2.5-8.9v-5.7h-5.6V122Z"/><path d="M164.6,133.1H162v-.5c-1,.1-2.1.3-3.1.4a19,19,0,0,1-3.1.2,1.86,1.86,0,0,1-2.1-2.1v-6.9a1.92,1.92,0,0,1,2.2-2.2H162v-5.7h-5.6v3.2H154v-3.2a1.92,1.92,0,0,1,2.2-2.2h6.2a1.92,1.92,0,0,1,2.2,2.2v16.8Zm-2.5-2.4V124h-5.8v6.8Z"/><path d="M178.8,120.3h-2.6v-3.9l-4.8.2v16.5h-2.6v-19h2.6v.5c.9-.1,1.7-.3,2.6-.4a12.78,12.78,0,0,1,2.6-.2,1.86,1.86,0,0,1,2.1,2.1v4.2Z"/><path d="M192.7,130.9a1.92,1.92,0,0,1-2.2,2.2h-6.2a1.92,1.92,0,0,1-2.2-2.2V116.3a1.92,1.92,0,0,1,2.2-2.2h6.2a1.92,1.92,0,0,1,2.2,2.2v6.8l-.9.9h-7.2v6.9h5.6v-3.5h2.5v3.5Zm-2.5-8.9v-5.7h-5.6V122Z"/><path d="M215.6,114.1,211,132.9l-1.9,7.4h-2.6l1.9-7.4-4.7-18.8h2.7l3.2,15,3.3-15Z"/><path d="M229.7,130.9a1.92,1.92,0,0,1-2.2,2.2H221a1.92,1.92,0,0,1-2.2-2.2V116.3a1.92,1.92,0,0,1,2.2-2.2h6.5a1.92,1.92,0,0,1,2.2,2.2Zm-2.6-.1V116.4h-5.7v14.4Z"/><path d="M244.8,133.1h-2.6v-.5c-1,.1-2.1.3-3.1.4a18.35,18.35,0,0,1-3.1.2,1.86,1.86,0,0,1-2.1-2.1v-17h2.6v16.7l5.8-.2V114.1h2.6v19Z"/><path d="M259,120.3h-2.6v-3.9l-4.8.2v16.5H249v-19h2.6v.5c.9-.1,1.7-.3,2.6-.4a12.78,12.78,0,0,1,2.6-.2,1.86,1.86,0,0,1,2.1,2.1v4.2Z"/></g><g style="isolation:isolate"><path d="M287.8,113.1H284l-1.6,9.4h4v2.2H282l-1.5,8.4H278l1.5-8.4h-4.7l-1.4,8.4h-2.5l1.5-8.4H269v-2.2h3.8l1.6-9.4h-4v-2.2h4.4l1.5-8.4h2.5l-1.5,8.4H282l1.4-8.4h2.5l-1.5,8.4h3.4Zm-6.2,0h-4.7l-1.6,9.4H280Z" fill="#65a91b"/><path d="M303.6,130.9a2.27,2.27,0,0,1-.6,1.6,2.11,2.11,0,0,1-1.6.6h-8a2.27,2.27,0,0,1-1.6-.6,2.11,2.11,0,0,1-.6-1.6v-10a2.22,2.22,0,0,1,1-2l3-1.9-2.9-1.8a2.12,2.12,0,0,1-1-2v-8.6a2.27,2.27,0,0,1,.6-1.6,2.11,2.11,0,0,1,1.6-.6h7.9a2.27,2.27,0,0,1,1.6.6,2.11,2.11,0,0,1,.6,1.6v8.6a2.12,2.12,0,0,1-1,2l-2.9,1.8,2.9,1.9a2.31,2.31,0,0,1,1.1,2v10Zm-2.8-.2V120.6l-3.5-2.3-3.5,2.3v10.1Zm0-17v-8.8H294v8.8l3.4,2.3Z" fill="#65a91b"/></g><g style="isolation:isolate"><path d="M287.8,113.1H284l-1.6,9.4h4v2.2H282l-1.5,8.4H278l1.5-8.4h-4.7l-1.4,8.4h-2.5l1.5-8.4H269v-2.2h3.8l1.6-9.4h-4v-2.2h4.4l1.5-8.4h2.5l-1.5,8.4H282l1.4-8.4h2.5l-1.5,8.4h3.4Zm-6.2,0h-4.7l-1.6,9.4H280Z" fill="none" stroke="#65a91b" stroke-miterlimit="10"/><path d="M303.6,130.9a2.27,2.27,0,0,1-.6,1.6,2.11,2.11,0,0,1-1.6.6h-8a2.27,2.27,0,0,1-1.6-.6,2.11,2.11,0,0,1-.6-1.6v-10a2.22,2.22,0,0,1,1-2l3-1.9-2.9-1.8a2.12,2.12,0,0,1-1-2v-8.6a2.27,2.27,0,0,1,.6-1.6,2.11,2.11,0,0,1,1.6-.6h7.9a2.27,2.27,0,0,1,1.6.6,2.11,2.11,0,0,1,.6,1.6v8.6a2.12,2.12,0,0,1-1,2l-2.9,1.8,2.9,1.9a2.31,2.31,0,0,1,1.1,2v10Zm-2.8-.2V120.6l-3.5-2.3-3.5,2.3v10.1Zm0-17v-8.8H294v8.8l3.4,2.3Z" fill="none" stroke="#65a91b" stroke-miterlimit="10"/></g><g style="isolation:isolate"><path d="M326.8,133.1h-2.6v-.5c-1,.1-2.1.3-3.1.4a19,19,0,0,1-3.1.2,1.86,1.86,0,0,1-2.1-2.1v-6.9a1.92,1.92,0,0,1,2.2-2.2h6.1v-5.7h-5.6v3.2h-2.5v-3.2a1.92,1.92,0,0,1,2.2-2.2h6.2a1.92,1.92,0,0,1,2.2,2.2v16.8Zm-2.6-2.4V124h-5.8v6.8Z"/><path d="M341.9,133.1h-2.6V116.4l-5.7.2v16.5H331v-19h2.6v.5c1-.1,2-.3,3.1-.4a18.35,18.35,0,0,1,3.1-.2,1.93,1.93,0,0,1,2.2,2.1v17Z"/><path d="M356.9,133.1h-2.6v-.5c-2.8.4-4.3.6-4.6.6a3.69,3.69,0,0,1-2.7-1.1,3.86,3.86,0,0,1-1-2.8V118.2a4.1,4.1,0,0,1,4.1-4.1h4.3V102.5H357v30.6Zm-2.5-2.4V116.3h-3.6c-1.4,0-2.1.7-2.1,2.2v10.2c0,1.5.7,2.2,2.1,2.2C351.1,130.9,352.3,130.9,354.4,130.7Z"/></g><g style="isolation:isolate"><path d="M386.8,113.1H383l-1.6,9.4h4v2.2H381l-1.5,8.4H377l1.5-8.4h-4.7l-1.4,8.4h-2.5l1.5-8.4H368v-2.2h3.8l1.6-9.4h-4v-2.2h4.4l1.5-8.4h2.5l-1.5,8.4H381l1.4-8.4h2.5l-1.5,8.4h3.4Zm-6.3,0h-4.7l-1.6,9.4h4.7Z" fill="#65a91b"/><path d="M402.2,130.9a2.27,2.27,0,0,1-.6,1.6,2.11,2.11,0,0,1-1.6.6h-7.6a2.27,2.27,0,0,1-1.6-.6,2.11,2.11,0,0,1-.6-1.6v-6.8h2.7v6.5h6.6V119.3h-7.2a2.27,2.27,0,0,1-1.6-.6,2.11,2.11,0,0,1-.6-1.6V104.6a2.27,2.27,0,0,1,.6-1.6,2.11,2.11,0,0,1,1.6-.6h7.8a2.27,2.27,0,0,1,1.6.6,2.11,2.11,0,0,1,.6,1.6v26.3ZM399.5,117V104.9h-6.7V117Z" fill="#65a91b"/></g><g style="isolation:isolate"><path d="M386.8,113.1H383l-1.6,9.4h4v2.2H381l-1.5,8.4H377l1.5-8.4h-4.7l-1.4,8.4h-2.5l1.5-8.4H368v-2.2h3.8l1.6-9.4h-4v-2.2h4.4l1.5-8.4h2.5l-1.5,8.4H381l1.4-8.4h2.5l-1.5,8.4h3.4Zm-6.3,0h-4.7l-1.6,9.4h4.7Z" fill="none" stroke="#65a91b" stroke-miterlimit="10"/><path d="M402.2,130.9a2.27,2.27,0,0,1-.6,1.6,2.11,2.11,0,0,1-1.6.6h-7.6a2.27,2.27,0,0,1-1.6-.6,2.11,2.11,0,0,1-.6-1.6v-6.8h2.7v6.5h6.6V119.3h-7.2a2.27,2.27,0,0,1-1.6-.6,2.11,2.11,0,0,1-.6-1.6V104.6a2.27,2.27,0,0,1,.6-1.6,2.11,2.11,0,0,1,1.6-.6h7.8a2.27,2.27,0,0,1,1.6.6,2.11,2.11,0,0,1,.6,1.6v26.3ZM399.5,117V104.9h-6.7V117Z" fill="none" stroke="#65a91b" stroke-miterlimit="10"/></g><g style="isolation:isolate"><path d="M208.7,181.1H205a1.92,1.92,0,0,1-2.2-2.2V164.4h-2.3v-2.3h2.3v-5.9h2.6v5.9h3.3v2.3h-3.3v14.4h3.3v2.3Z"/><path d="M214.8,157.9h-2.6v-3.3h2.6Zm0,23.2h-2.6v-19h2.6Z"/><path d="M221.9,181.1h-2.6V150.5h2.6Z"/><path d="M236.9,178.9a1.92,1.92,0,0,1-2.2,2.2h-6.2a1.92,1.92,0,0,1-2.2-2.2V164.3a1.92,1.92,0,0,1,2.2-2.2h6.2a1.92,1.92,0,0,1,2.2,2.2v6.8l-.9.9h-7.2v6.9h5.6v-3.5h2.5v3.5Zm-2.5-8.9v-5.7h-5.6V170Z"/><path d="M251.5,178.9a1.92,1.92,0,0,1-2.2,2.2h-6a1.92,1.92,0,0,1-2.2-2.2v-4.3h2.6v4.3H249v-3.8l-6.8-5.6a2.33,2.33,0,0,1-1-2v-3.2a1.92,1.92,0,0,1,2.2-2.2h5.9a1.92,1.92,0,0,1,2.2,2.2v3.8H249v-3.8h-5.3v3.3l6.9,5.6a2.66,2.66,0,0,1,1,2.1v3.6Z"/><path d="M266.9,159.6a3.7,3.7,0,0,1-.6,2.1l-4,6.1v6.5h-2.7v-5.8a3.28,3.28,0,0,1,.6-2.1l4-6v-7.3H258V160h-2.7v-7.1a2.27,2.27,0,0,1,.6-1.6,2.11,2.11,0,0,1,1.6-.6h7.3a2.06,2.06,0,0,1,2.2,2.2v6.7Zm-4.5,21.5h-3v-3.4h3Z"/></g><g style="isolation:isolate"><path d="M82.7,229.4l-2.6,8.7c-.3.9-.8,2.3-1.3,4.3v8.3H76.9v-8.3a10.41,10.41,0,0,0-.6-2.2c-.4-1.3-.7-2-.7-2.1L73,229.4v-.1h1.9L77.8,240l2.9-10.7h1.9Z" fill="#65a91b"/><path d="M92.4,249.1a1.33,1.33,0,0,1-1.5,1.5H86.3a1.33,1.33,0,0,1-1.5-1.5V238.9a1.33,1.33,0,0,1,1.5-1.5h4.6a1.33,1.33,0,0,1,1.5,1.5Zm-1.8,0V239h-4v10.1Z" fill="#65a91b"/><path d="M103,250.7h-1.8v-.4l-2.2.3c-.9.1-1.6.2-2.2.2a1.33,1.33,0,0,1-1.5-1.5V237.4h1.8v11.7l4-.1V237.4h1.8v13.3Z" fill="#65a91b"/><path d="M124.8,250.7H123V239l-4,.1v11.6h-1.8V239l-4,.1v11.6h-1.8V237.4h1.8v.4l2.1-.3c.9-.1,1.6-.2,2.1-.2a1.36,1.36,0,0,1,1.2.5l2.3-.3c1-.1,1.7-.2,2.3-.2a1.33,1.33,0,0,1,1.5,1.5v11.9Z" fill="#65a91b"/><path d="M135.4,250.7h-1.8v-.4l-2.2.3c-.9.1-1.6.2-2.2.2a1.33,1.33,0,0,1-1.5-1.5V237.4h1.8v11.7l4-.1V237.4h1.8v13.3Z" fill="#65a91b"/><path d="M145.5,249.1a1.33,1.33,0,0,1-1.5,1.5h-4.2a1.33,1.33,0,0,1-1.5-1.5v-3h1.8v3h3.7v-2.7l-4.8-3.9a1.62,1.62,0,0,1-.7-1.4v-2.2a1.33,1.33,0,0,1,1.5-1.5h4.1a1.33,1.33,0,0,1,1.5,1.5v2.7h-1.8V239h-3.7v2.3l4.8,3.9a1.91,1.91,0,0,1,.7,1.4v2.5Z" fill="#65a91b"/><path d="M153.2,250.7h-2.6a1.33,1.33,0,0,1-1.5-1.5V239h-1.6v-1.6h1.6v-4.1h1.8v4.1h2.3V239h-2.3v10.1h2.3Z" fill="#65a91b"/><path d="M168.4,249.1a1.33,1.33,0,0,1-1.5,1.5h-4.3a1.33,1.33,0,0,1-1.5-1.5V238.9a1.33,1.33,0,0,1,1.5-1.5h4.3a1.33,1.33,0,0,1,1.5,1.5v2.7h-1.8V239h-3.8v10.1h3.8v-3h1.8Z" fill="#65a91b"/><path d="M179,250.7h-1.8V239l-4,.1v11.6h-1.8V229.3h1.8v8.5l2.2-.3c.9-.1,1.6-.2,2.1-.2a1.33,1.33,0,0,1,1.5,1.5Z" fill="#65a91b"/><path d="M189.6,249.1a1.33,1.33,0,0,1-1.5,1.5h-4.6a1.33,1.33,0,0,1-1.5-1.5V238.9a1.33,1.33,0,0,1,1.5-1.5h4.6a1.33,1.33,0,0,1,1.5,1.5Zm-1.8,0V239h-4v10.1Z" fill="#65a91b"/><path d="M200.2,249.1a1.33,1.33,0,0,1-1.5,1.5h-4.6a1.33,1.33,0,0,1-1.5-1.5V238.9a1.33,1.33,0,0,1,1.5-1.5h4.6a1.33,1.33,0,0,1,1.5,1.5Zm-1.8,0V239h-4v10.1Z" fill="#65a91b"/><path d="M210.3,249.1a1.33,1.33,0,0,1-1.5,1.5h-4.2a1.33,1.33,0,0,1-1.5-1.5v-3h1.8v3h3.7v-2.7l-4.8-3.9a1.62,1.62,0,0,1-.7-1.4v-2.2a1.33,1.33,0,0,1,1.5-1.5h4.1a1.33,1.33,0,0,1,1.5,1.5v2.7h-1.8V239h-3.7v2.3l4.8,3.9a1.91,1.91,0,0,1,.7,1.4v2.5Z" fill="#65a91b"/><path d="M220.6,249.1a1.33,1.33,0,0,1-1.5,1.5h-4.4a1.33,1.33,0,0,1-1.5-1.5V238.9a1.33,1.33,0,0,1,1.5-1.5h4.4a1.33,1.33,0,0,1,1.5,1.5v4.8l-.6.6h-5v4.8h3.9v-2.4h1.8v2.4Zm-1.7-6.2v-4H215v4Z" fill="#65a91b"/><path d="M236.8,249.1a1.33,1.33,0,0,1-1.5,1.5h-4.6a1.33,1.33,0,0,1-1.5-1.5V238.9a1.33,1.33,0,0,1,1.5-1.5h4.6a1.33,1.33,0,0,1,1.5,1.5Zm-1.8,0V239h-4v10.1Z" fill="#65a91b"/><path d="M247.4,250.7h-1.8V239l-4,.1v11.6h-1.8V237.4h1.8v.4l2.1-.3c.9-.1,1.6-.2,2.2-.2a1.33,1.33,0,0,1,1.5,1.5Z" fill="#65a91b"/><path d="M257.8,249.1a1.33,1.33,0,0,1-1.5,1.5h-4.4a1.33,1.33,0,0,1-1.5-1.5V238.9a1.33,1.33,0,0,1,1.5-1.5h4.4a1.33,1.33,0,0,1,1.5,1.5v4.8l-.6.6h-5.1v4.8H256v-2.4h1.8v2.4Zm-1.8-6.2v-4h-3.9v4Z" fill="#65a91b"/><path d="M273.9,250.7h-1.8V239l-4,.1v11.6h-1.8V237.4h1.8v.4l2.1-.3c.9-.1,1.6-.2,2.2-.2a1.33,1.33,0,0,1,1.5,1.5v11.9Z" fill="#65a91b"/><path d="M284.5,250.7h-1.8v-.4l-2.2.3c-.9.1-1.6.2-2.2.2a1.33,1.33,0,0,1-1.5-1.5V237.4h1.8v11.7l4-.1V237.4h1.8v13.3Z" fill="#65a91b"/><path d="M300.8,250.7H299V239l-4,.1v11.6h-1.8V239l-4,.1v11.6h-1.8V237.4h1.8v.4l2.1-.3c.9-.1,1.6-.2,2.1-.2a1.36,1.36,0,0,1,1.2.5l2.3-.3c1-.1,1.7-.2,2.3-.2a1.33,1.33,0,0,1,1.5,1.5v11.9Z" fill="#65a91b"/><path d="M311.4,247.8a2.73,2.73,0,0,1-2.8,2.8h-4.8V229.2h1.8v8.5l2.2-.3c.9-.1,1.6-.2,2.1-.2a1.33,1.33,0,0,1,1.5,1.5v9.1Zm-1.8-.2V239l-4,.1v10h2.5A1.33,1.33,0,0,0,309.6,247.6Z" fill="#65a91b"/><path d="M321.8,249.1a1.33,1.33,0,0,1-1.5,1.5h-4.4a1.33,1.33,0,0,1-1.5-1.5V238.9a1.33,1.33,0,0,1,1.5-1.5h4.4a1.33,1.33,0,0,1,1.5,1.5v4.8l-.6.6h-5.1v4.8H320v-2.4h1.8v2.4Zm-1.8-6.2v-4h-3.9v4Z" fill="#65a91b"/><path d="M331.8,241.8H330V239l-3.3.1v11.6h-1.8V237.4h1.8v.4l1.8-.3a14.05,14.05,0,0,1,1.8-.2,1.33,1.33,0,0,1,1.5,1.5Z" fill="#65a91b"/><path d="M347.2,247.8a2.73,2.73,0,0,1-2.8,2.8h-4.8V229.2h1.8v8.5l2.2-.3c.9-.1,1.6-.2,2.1-.2a1.33,1.33,0,0,1,1.5,1.5v9.1Zm-1.8-.2V239l-4,.1v10h2.5A1.33,1.33,0,0,0,345.4,247.6Z" fill="#65a91b"/><path d="M357.6,249.1a1.33,1.33,0,0,1-1.5,1.5h-4.4a1.33,1.33,0,0,1-1.5-1.5V238.9a1.33,1.33,0,0,1,1.5-1.5h4.4a1.33,1.33,0,0,1,1.5,1.5v4.8l-.6.6h-5.1v4.8h3.9v-2.4h1.8v2.4Zm-1.8-6.2v-4h-3.9v4Z" fill="#65a91b"/><path d="M365.6,230.9H363v6.5h2.3V239H363v11.7h-1.8V239h-1.5v-1.6h1.5v-6.5a1.33,1.33,0,0,1,1.5-1.5h2.8v1.5Z" fill="#65a91b"/><path d="M374.9,249.1a1.33,1.33,0,0,1-1.5,1.5h-4.6a1.33,1.33,0,0,1-1.5-1.5V238.9a1.33,1.33,0,0,1,1.5-1.5h4.6a1.33,1.33,0,0,1,1.5,1.5Zm-1.8,0V239h-4v10.1Z" fill="#65a91b"/><path d="M384.8,241.8H383V239l-3.3.1v11.6h-1.8V237.4h1.8v.4l1.8-.3a14.05,14.05,0,0,1,1.8-.2,1.33,1.33,0,0,1,1.5,1.5Z" fill="#65a91b"/><path d="M394.6,249.1a1.33,1.33,0,0,1-1.5,1.5h-4.4a1.33,1.33,0,0,1-1.5-1.5V238.9a1.33,1.33,0,0,1,1.5-1.5h4.4a1.33,1.33,0,0,1,1.5,1.5v4.8l-.6.6h-5.1v4.8h3.9v-2.4h1.8v2.4Zm-1.8-6.2v-4h-3.9v4Z" fill="#65a91b"/></g><g style="isolation:isolate"><path d="M155.9,284.3h-1.8v-.4l-2.2.3c-.9.1-1.6.2-2.1.2a1.33,1.33,0,0,1-1.5-1.5V278a1.33,1.33,0,0,1,1.5-1.5h4.3v-4h-3.9v2.3h-1.8v-2.2a1.33,1.33,0,0,1,1.5-1.5h4.4a1.33,1.33,0,0,1,1.5,1.5v11.7Zm-1.8-1.7v-4.7H150v4.8Z" fill="#65a91b"/><path d="M166,282.7a1.33,1.33,0,0,1-1.5,1.5h-4.2a1.33,1.33,0,0,1-1.5-1.5v-3h1.8v3h3.7V280l-4.8-3.9a1.62,1.62,0,0,1-.7-1.4v-2.2a1.33,1.33,0,0,1,1.5-1.5h4.1a1.33,1.33,0,0,1,1.5,1.5v2.7h-1.8v-2.6h-3.7v2.3l4.8,3.9a1.91,1.91,0,0,1,.7,1.4v2.5Z" fill="#65a91b"/><path d="M176.4,284.3h-2l-3.7-6.8v6.8h-1.8V262.9h1.8v13.6l3.4-5.5h2v.1l-3.9,5.9Z" fill="#65a91b"/><path d="M180.2,268.1h-1.8v-2.3h1.8Zm0,16.2h-1.8V271h1.8Z" fill="#65a91b"/><path d="M190.9,284.3h-1.8V272.6l-4,.1v11.6h-1.8V271h1.8v.4l2.1-.3c.9-.1,1.6-.2,2.2-.2a1.33,1.33,0,0,1,1.5,1.5Z" fill="#65a91b"/><path d="M201.4,287.8a1.33,1.33,0,0,1-1.5,1.5h-4.3c-1,0-1.6-.7-1.6-2v-1.4h1.8v1.8h3.8v-3.5h-3a2.73,2.73,0,0,1-2.8-2.8v-7.8a2.88,2.88,0,0,1,.7-2,2.56,2.56,0,0,1,1.9-.8c.2,0,1.3.2,3.2.5V271h1.8v16.8Zm-1.8-5.1v-10c-1.4-.1-2.3-.1-2.5-.1a1.33,1.33,0,0,0-1.5,1.5v7.1a1.33,1.33,0,0,0,1.5,1.5Z" fill="#65a91b"/><path d="M214.7,284.3h-2.6a1.33,1.33,0,0,1-1.5-1.5V272.6H209V271h1.6v-4.1h1.8V271h2.3v1.6h-2.3v10.1h2.3v1.6Z" fill="#65a91b"/><path d="M224.7,284.3h-1.8V272.6l-4,.1v11.6H217V262.9h1.8v8.5l2.2-.3c.9-.1,1.6-.2,2.1-.2a1.33,1.33,0,0,1,1.5,1.5v11.9Z" fill="#65a91b"/><path d="M235,282.7a1.33,1.33,0,0,1-1.5,1.5h-4.4a1.33,1.33,0,0,1-1.5-1.5V272.5a1.33,1.33,0,0,1,1.5-1.5h4.4a1.33,1.33,0,0,1,1.5,1.5v4.8l-.6.6h-5.1v4.8h3.9v-2.4H235v2.4Zm-1.7-6.2v-4h-3.9v4Z" fill="#65a91b"/><path d="M251.1,289.3h-1.8v-5h-3a2.73,2.73,0,0,1-2.8-2.8v-7.8a2.88,2.88,0,0,1,.7-2,2.24,2.24,0,0,1,1.9-.8c.2,0,1.3.2,3.2.5V271h1.8v18.3Zm-1.8-6.6v-10c-1.4-.1-2.3-.1-2.5-.1a1.33,1.33,0,0,0-1.5,1.5v7.1a1.33,1.33,0,0,0,1.5,1.5Z" fill="#65a91b"/><path d="M261.7,284.3h-1.8v-.4l-2.2.3c-.9.1-1.6.2-2.2.2a1.33,1.33,0,0,1-1.5-1.5V271h1.8v11.7l4-.1V271h1.8v13.3Z" fill="#65a91b"/><path d="M272.1,282.7a1.33,1.33,0,0,1-1.5,1.5h-4.4a1.33,1.33,0,0,1-1.5-1.5V272.5a1.33,1.33,0,0,1,1.5-1.5h4.4a1.33,1.33,0,0,1,1.5,1.5v4.8l-.6.6h-5.1v4.8h3.9v-2.4h1.8v2.4Zm-1.8-6.2v-4h-3.9v4Z" fill="#65a91b"/><path d="M282.3,282.7a1.33,1.33,0,0,1-1.5,1.5h-4.2a1.33,1.33,0,0,1-1.5-1.5v-3h1.8v3h3.7V280l-4.8-3.9a1.62,1.62,0,0,1-.7-1.4v-2.2a1.33,1.33,0,0,1,1.5-1.5h4.1a1.33,1.33,0,0,1,1.5,1.5v2.7h-1.8v-2.6h-3.7v2.3l4.8,3.9a1.91,1.91,0,0,1,.7,1.4v2.5Z" fill="#65a91b"/><path d="M290,284.3h-2.6a1.33,1.33,0,0,1-1.5-1.5V272.6h-1.6V271h1.6v-4.1h1.8V271H290v1.6h-2.3v10.1H290v1.6Z" fill="#65a91b"/><path d="M294.2,268.1h-1.8v-2.3h1.8Zm0,16.2h-1.8V271h1.8Z" fill="#65a91b"/><path d="M304.9,282.7a1.33,1.33,0,0,1-1.5,1.5h-4.6a1.33,1.33,0,0,1-1.5-1.5V272.5a1.33,1.33,0,0,1,1.5-1.5h4.6a1.33,1.33,0,0,1,1.5,1.5Zm-1.8,0V272.6h-4v10.1Z" fill="#65a91b"/><path d="M315.5,284.3h-1.8V272.6l-4,.1v11.6h-1.8V271h1.8v.4l2.1-.3c.9-.1,1.6-.2,2.2-.2a1.33,1.33,0,0,1,1.5,1.5v11.9Z" fill="#65a91b"/><path d="M320.3,284.3h-2.1v-2.4h2.1Z" fill="#65a91b"/></g></g></g></g></g></svg>